G04 start of page 2 for group 0 idx 0 *
G04 Title: bluenodes actor 52832 19, component *
G04 Creator: pcb.exe 20130205 *
G04 CreationDate: 10.05.2017 20:52:51 UTC *
G04 Format: Gerber/RS-274X *
G04 PCB-Dimensions (mil): 1496.06 1299.21 *
G04 PCB-Coordinate-Origin: lower left *
%MOIN*%
%FSLAX25Y25*%
%LNTOP*%
%ADD196C,0.0118*%
%ADD195C,0.0315*%
%ADD194C,0.0315*%
%ADD193R,0.2280X0.2280*%
%ADD192R,0.0630X0.0630*%
%ADD191R,0.0315X0.0315*%
%ADD190R,0.0551X0.0551*%
%ADD189R,0.0630X0.0630*%
%ADD188C,0.0787*%
%ADD187R,0.0866X0.0866*%
%ADD186C,0.0630*%
%ADD185R,0.0394X0.0394*%
%ADD184R,0.0280X0.0280*%
%ADD183R,0.0276X0.0276*%
%ADD182R,0.0591X0.0591*%
%ADD181R,0.0236X0.0236*%
%ADD180R,0.0630X0.0630*%
%ADD179C,0.0100*%
%ADD178C,0.0258*%
%ADD177C,0.0472*%
%ADD176C,0.0236*%
%ADD175C,0.0630*%
%ADD174C,0.0099*%
%ADD173C,0.0158*%
%ADD172C,0.0530*%
%ADD171C,0.0001*%
G54D171*G36*
X42126Y119291D02*X58701D01*
Y97362D01*
X42126D01*
Y119291D01*
G37*
G36*
X69084Y100787D02*X80709D01*
Y93307D01*
X64173D01*
Y99347D01*
X69076Y99348D01*
X69077Y99348D01*
X69079Y99349D01*
X69080Y99349D01*
X69081Y99350D01*
X69082Y99352D01*
X69083Y99353D01*
X69084Y99354D01*
X69084Y99356D01*
X69084Y99357D01*
X69084Y100787D01*
G37*
G54D172*X30315Y58858D02*X42717Y46457D01*
G54D173*X53543Y74449D02*Y65315D01*
X53622Y65236D01*
G54D174*X59843Y64961D02*X52756D01*
G54D173*X47638D02*Y56693D01*
X136811Y69882D02*Y74803D01*
X141732Y79724D01*
G54D174*X113583Y68898D02*Y68701D01*
X117323Y64961D01*
G54D173*X46063Y79528D02*X53150D01*
G54D175*X96457Y57283D02*Y68701D01*
X66535Y76024D02*Y57520D01*
X106496Y63976D02*X100591D01*
X106496Y60039D02*X99606D01*
G54D173*X80039Y72087D02*X79961Y72008D01*
G54D174*X117323Y64961D02*Y56299D01*
X101260Y49724D02*X115354D01*
X117283Y51654D01*
Y56693D01*
G54D172*X5512Y94685D02*Y63780D01*
X6299Y63386D02*X11220Y58465D01*
X25787Y58858D02*X30315D01*
G54D173*X46063Y79528D02*Y84646D01*
X53543D02*Y79528D01*
X53150Y79921D02*X53543Y79528D01*
X79921Y83465D02*X53937D01*
G54D176*X80039Y83189D02*Y71929D01*
G54D175*X28740Y116142D02*X43425D01*
G54D174*X66535Y116339D02*X72441D01*
X73425Y117323D01*
X66535Y112598D02*X71654D01*
X90157Y117323D02*X101969D01*
Y99606D01*
X73622Y109843D02*X79921Y103543D01*
X78740Y111024D02*X97638D01*
X78346Y117323D02*X85236D01*
X68504Y99606D02*X67520Y100591D01*
X71654Y112598D02*X73622Y110630D01*
Y109843D01*
X67323Y104331D02*X73228D01*
G54D177*X27756Y100984D02*X17717D01*
X17126D02*Y111220D01*
X16929D02*X7087D01*
G54D174*X101969Y99606D02*X68504D01*
G54D173*X95276Y90157D02*Y80709D01*
G54D178*X81102D01*
G54D172*X42224Y4626D02*Y14272D01*
G54D175*X130418Y5296D02*X130455Y5259D01*
G54D172*X103346Y14764D02*Y5315D01*
X16732Y3110D02*X130821D01*
X42717Y46457D02*Y36811D01*
G54D177*X57087Y54134D02*Y27559D01*
G54D172*X44882Y35433D02*X17520D01*
X111614Y35039D02*X125197D01*
G54D177*X105472Y34921D02*X83819D01*
G54D172*X125787Y35039D02*Y81890D01*
G54D177*X83819Y34921D02*X76299Y42441D01*
G54D174*X101378Y43543D02*X101457Y43622D01*
X106102D01*
G54D172*X134055Y25591D02*X4724D01*
G54D179*X131929Y55927D02*X134169D01*
X133049D02*Y51447D01*
X135513Y55367D02*Y52007D01*
Y55367D02*X136073Y55927D01*
X137193D01*
X137753Y55367D01*
Y52007D01*
X137193Y51447D02*X137753Y52007D01*
X136073Y51447D02*X137193D01*
X135513Y52007D02*X136073Y51447D01*
X139657Y55927D02*Y51447D01*
X139097Y55927D02*X141337D01*
X141897Y55367D01*
Y54247D01*
X141337Y53687D02*X141897Y54247D01*
X139657Y53687D02*X141337D01*
G54D180*X5791Y101122D02*Y88524D01*
G54D181*X43877Y116287D02*X46633D01*
G54D180*X27773Y123925D02*Y111327D01*
X5727Y123925D02*Y111327D01*
X27837Y101122D02*Y88524D01*
G54D182*X28819Y77283D02*Y71378D01*
X7165Y77283D02*Y71378D01*
G54D183*X79262Y99335D02*Y98548D01*
X72994Y99320D02*Y98533D01*
G54D181*X65137Y100539D02*X67893D01*
G54D171*G36*
X62169Y79483D02*Y71613D01*
X70039D01*
Y79483D01*
X62169D01*
G37*
G36*
Y95183D02*Y87313D01*
X70039D01*
Y95183D01*
X62169D01*
G37*
G54D184*X46181Y75241D02*Y74041D01*
X53781Y75241D02*Y74041D01*
G54D181*X43877Y112350D02*X46633D01*
X43877Y108413D02*X46633D01*
X43877Y104476D02*X46633D01*
X43877Y100539D02*X46633D01*
G54D184*X53781Y85441D02*Y84241D01*
X49981Y85441D02*Y84241D01*
X46181Y85441D02*Y84241D01*
G54D185*X53702Y65657D02*X54096D01*
X47010D02*X47404D01*
G54D186*X58268Y68504D02*Y68307D01*
G54D187*X10039Y45866D02*X23425D01*
G54D171*G36*
X21933Y62829D02*Y54959D01*
X29803D01*
Y62829D01*
X21933D01*
G37*
G36*
X6233D02*Y54959D01*
X14103D01*
Y62829D01*
X6233D01*
G37*
G54D187*X9646Y5709D02*X23031D01*
G54D183*X72994Y104437D02*Y103650D01*
G54D181*X65137Y104476D02*X67893D01*
X65137Y108413D02*X67893D01*
G54D183*X73161Y110941D02*X73948D01*
X78278D02*X79065D01*
X79262Y104452D02*Y103665D01*
G54D181*X65137Y112350D02*X67893D01*
X65137Y116287D02*X67893D01*
G54D182*X77913Y92244D02*X83819D01*
X77913Y70591D02*X83819D01*
G54D188*X95866Y106448D03*
G54D183*X97207Y117428D02*Y116641D01*
Y112311D02*Y111524D01*
X90120Y117232D02*X90907D01*
X85003D02*X85790D01*
X72994D02*X73781D01*
G54D189*X44331Y126732D02*X100236D01*
G54D183*X78111Y117232D02*X78898D01*
X100787Y48818D02*Y48031D01*
Y43701D02*Y42914D01*
G54D186*X106890Y44291D02*Y44094D01*
G54D187*X126181Y5315D02*X139567D01*
G54D190*X102953Y25591D02*X110827D01*
X102953Y35039D02*X110827D01*
X102953Y15748D02*X110827D01*
G54D187*X126575Y45472D02*X139961D01*
G54D189*X48622Y57283D02*X104528D01*
G54D190*X38780Y35433D02*X46654D01*
G54D187*X69567Y45866D02*X82559D01*
X69567Y14370D02*X82559D01*
G54D190*X38780Y16142D02*X46654D01*
X38780Y25591D02*X46654D01*
G54D191*X134252Y70079D02*X137401D01*
G54D192*X140022Y79189D02*X145522D01*
X140022Y97189D02*X145522D01*
G54D191*X109448Y70079D02*X112598D01*
G54D180*X95538Y80776D02*X96324D01*
X95538Y69754D02*X96324D01*
G54D171*G36*
X91931Y94683D02*Y86813D01*
X99801D01*
Y94683D01*
X91931D01*
G37*
G54D191*X134252Y60079D02*X137401D01*
X109448D02*X112598D01*
G54D192*X139944Y107535D02*X145444D01*
X139944Y125535D02*X145444D01*
G54D193*X119594Y116535D02*X121194D01*
X119672Y88189D02*X121272D01*
G54D194*X138780Y95472D03*
X141732D03*
X138780Y98425D03*
X141732D03*
X146654Y107283D03*
X146260Y80512D03*
X135827Y60039D03*
X147835Y68898D03*
X144882D03*
X103386Y42244D03*
X87795Y62992D03*
X107283Y65945D03*
Y58071D03*
Y62008D03*
X117520Y71654D03*
X103346Y65945D03*
X99409D03*
Y62008D03*
Y58071D03*
X103346D03*
Y62008D03*
X92638Y47677D03*
X60630Y64961D03*
X22835Y33858D03*
Y37008D03*
X20079Y33858D03*
X17323D03*
X20079Y37008D03*
X17323D03*
X8858Y26575D03*
Y23622D03*
X5906D03*
X2953Y26575D03*
Y23622D03*
X5906Y26575D03*
X147835Y65945D03*
X144882D03*
X135827Y26772D03*
Y24016D03*
X133071D03*
Y26772D03*
X130315D03*
Y24016D03*
X135433Y35630D03*
X73819Y15748D03*
X78740D03*
X83661D03*
Y11811D03*
X78740D03*
X73819D03*
X138780Y126969D03*
X141732D03*
X138780Y124016D03*
X141732D03*
X123031Y119094D03*
X120079Y116142D03*
X123031D03*
Y113189D03*
X120079D03*
Y119094D03*
X59213Y126890D03*
X90551Y126969D03*
X102008Y126850D03*
X52992Y126890D03*
X96378Y126969D03*
G54D195*X27559Y110236D03*
Y113189D03*
Y116142D03*
Y78740D03*
Y75787D03*
Y72835D03*
Y69882D03*
G54D194*X18110Y85039D03*
G54D195*X27559Y119094D03*
G54D194*X5906Y123031D03*
Y120079D03*
Y117126D03*
Y114173D03*
X50079Y84843D03*
X44291Y84449D03*
X50000Y89567D03*
X46535Y126969D03*
G54D196*M02*
