G04 start of page 5 for group 3 idx 3 *
G04 Title: bluenodes actor 52832 19, power *
G04 Creator: pcb.exe 20130205 *
G04 CreationDate: 10.05.2017 20:52:52 UTC *
G04 Format: Gerber/RS-274X *
G04 PCB-Dimensions (mil): 1496.06 1299.21 *
G04 PCB-Coordinate-Origin: lower left *
%MOIN*%
%FSLAX25Y25*%
%LNGROUP3*%
%ADD246C,0.0118*%
%ADD245C,0.0315*%
%ADD244C,0.0315*%
%ADD243C,0.0472*%
%ADD242C,0.0158*%
%ADD241C,0.0730*%
%ADD240C,0.0099*%
%ADD239C,0.0630*%
%ADD238C,0.0551*%
%ADD237C,0.0001*%
G54D237*G36*
X133016Y57347D02*X133057Y57311D01*
X133508Y57034D01*
X133997Y56832D01*
X134512Y56708D01*
X135039Y56667D01*
X135567Y56708D01*
X136082Y56832D01*
X136571Y57034D01*
X137022Y57311D01*
X137424Y57655D01*
X137752Y58039D01*
X137793Y58073D01*
X138076Y58405D01*
X138304Y58777D01*
X138471Y59180D01*
X138573Y59604D01*
X138599Y60039D01*
X138573Y60474D01*
X138471Y60899D01*
X138304Y61302D01*
X138076Y61674D01*
X137793Y62005D01*
X137750Y62042D01*
X137417Y62417D01*
X133016Y66818D01*
Y71698D01*
X138655Y66059D01*
X138646Y65945D01*
X138723Y64969D01*
X138951Y64018D01*
X139326Y63114D01*
X139837Y62280D01*
X140472Y61535D01*
X141217Y60900D01*
X142051Y60389D01*
X142955Y60014D01*
X143906Y59786D01*
X144882Y59709D01*
X145857Y59786D01*
X146569Y59957D01*
X146875Y59883D01*
X147835Y59808D01*
X148795Y59883D01*
X149606Y60078D01*
Y0D01*
X133016D01*
Y20835D01*
X133071Y20831D01*
X133569Y20870D01*
X134055Y20987D01*
X134449Y21150D01*
X134843Y20987D01*
X135329Y20870D01*
X135827Y20831D01*
X136325Y20870D01*
X136811Y20987D01*
X137273Y21178D01*
X137699Y21439D01*
X138079Y21764D01*
X138403Y22144D01*
X138664Y22570D01*
X138856Y23032D01*
X138972Y23518D01*
X139002Y24016D01*
X138972Y24514D01*
X138856Y25000D01*
X138693Y25394D01*
X138856Y25788D01*
X138972Y26273D01*
X139002Y26772D01*
X138972Y27270D01*
X138856Y27756D01*
X138664Y28218D01*
X138403Y28644D01*
X138079Y29024D01*
X137699Y29348D01*
X137273Y29609D01*
X136811Y29801D01*
X136325Y29917D01*
X135827Y29956D01*
X135329Y29917D01*
X134843Y29801D01*
X134576Y29690D01*
X134562Y29699D01*
X134086Y29896D01*
X133585Y30016D01*
X133071Y30057D01*
X133016Y30052D01*
Y34737D01*
X133132Y34457D01*
X133343Y34112D01*
X133607Y33804D01*
X133915Y33540D01*
X134260Y33329D01*
X134635Y33173D01*
X135029Y33079D01*
X135433Y33047D01*
X135837Y33079D01*
X136231Y33173D01*
X136606Y33329D01*
X136951Y33540D01*
X137259Y33804D01*
X137523Y34112D01*
X137734Y34457D01*
X137890Y34832D01*
X137984Y35226D01*
X138008Y35630D01*
X137984Y36034D01*
X137890Y36428D01*
X137734Y36803D01*
X137523Y37148D01*
X137259Y37456D01*
X136951Y37720D01*
X136606Y37931D01*
X136231Y38086D01*
X135837Y38181D01*
X135433Y38213D01*
X135029Y38181D01*
X134635Y38086D01*
X134260Y37931D01*
X133915Y37720D01*
X133607Y37456D01*
X133343Y37148D01*
X133132Y36803D01*
X133016Y36523D01*
Y57347D01*
G37*
G36*
Y66818D02*X115173Y84660D01*
Y89575D01*
X115447Y89266D01*
X133016Y71698D01*
Y66818D01*
G37*
G36*
X103382Y129921D02*X108822D01*
X108417Y129575D01*
X108013Y129102D01*
X107688Y128572D01*
X107449Y127997D01*
X107304Y127392D01*
X107268Y126772D01*
Y83858D01*
X107304Y83238D01*
X107449Y82633D01*
X107688Y82058D01*
X108013Y81528D01*
X108417Y81055D01*
X108890Y80650D01*
X109420Y80325D01*
X109995Y80087D01*
X110313Y80011D01*
X116217Y74106D01*
X115885Y73903D01*
X115554Y73620D01*
X115270Y73288D01*
X115042Y72916D01*
X114875Y72513D01*
X114774Y72088D01*
X114739Y71654D01*
X114774Y71219D01*
X114875Y70794D01*
X115042Y70391D01*
X115270Y70019D01*
X115554Y69688D01*
X115885Y69404D01*
X116257Y69176D01*
X116660Y69009D01*
X117085Y68907D01*
X117520Y68873D01*
X117955Y68907D01*
X118379Y69009D01*
X118782Y69176D01*
X119154Y69404D01*
X119486Y69688D01*
X119769Y70019D01*
X119973Y70351D01*
X132662Y57662D01*
X133016Y57347D01*
Y36523D01*
X132977Y36428D01*
X132882Y36034D01*
X132850Y35630D01*
X132882Y35226D01*
X132977Y34832D01*
X133016Y34737D01*
Y30052D01*
X132557Y30016D01*
X132056Y29896D01*
X131693Y29746D01*
X131330Y29896D01*
X130829Y30016D01*
X130315Y30057D01*
X129801Y30016D01*
X129300Y29896D01*
X128824Y29699D01*
X128384Y29429D01*
X127992Y29095D01*
X127657Y28703D01*
X127388Y28263D01*
X127191Y27787D01*
X127070Y27286D01*
X127030Y26772D01*
X127070Y26258D01*
X127191Y25757D01*
X127388Y25280D01*
X127396Y25266D01*
X127286Y25000D01*
X127169Y24514D01*
X127130Y24016D01*
X127169Y23518D01*
X127286Y23032D01*
X127477Y22570D01*
X127738Y22144D01*
X128063Y21764D01*
X128443Y21439D01*
X128869Y21178D01*
X129331Y20987D01*
X129817Y20870D01*
X130315Y20831D01*
X130813Y20870D01*
X131299Y20987D01*
X131693Y21150D01*
X132087Y20987D01*
X132573Y20870D01*
X133016Y20835D01*
Y0D01*
X103382D01*
Y39461D01*
X103386Y39461D01*
X103821Y39495D01*
X104246Y39597D01*
X104650Y39764D01*
X105022Y39992D01*
X105354Y40276D01*
X105638Y40608D01*
X105866Y40980D01*
X106033Y41384D01*
X106135Y41809D01*
X106161Y42244D01*
X106135Y42680D01*
X106033Y43104D01*
X105866Y43508D01*
X105638Y43880D01*
X105354Y44212D01*
X105022Y44496D01*
X104650Y44724D01*
X104246Y44891D01*
X103821Y44993D01*
X103386Y45028D01*
X103382Y45027D01*
Y55392D01*
X103766Y55422D01*
X104175Y55520D01*
X104564Y55681D01*
X104923Y55901D01*
X105243Y56175D01*
X105315Y56259D01*
X105387Y56175D01*
X105707Y55901D01*
X106066Y55681D01*
X106455Y55520D01*
X106864Y55422D01*
X107283Y55389D01*
X107703Y55422D01*
X108112Y55520D01*
X108501Y55681D01*
X108860Y55901D01*
X109180Y56175D01*
X109453Y56495D01*
X109673Y56853D01*
X109834Y57242D01*
X109932Y57651D01*
X109957Y58071D01*
X109932Y58490D01*
X109834Y58900D01*
X109673Y59288D01*
X109453Y59647D01*
X109180Y59967D01*
X109095Y60039D01*
X109180Y60112D01*
X109453Y60432D01*
X109673Y60790D01*
X109834Y61179D01*
X109932Y61588D01*
X109957Y62008D01*
X109932Y62427D01*
X109834Y62837D01*
X109673Y63225D01*
X109453Y63584D01*
X109180Y63904D01*
X109095Y63976D01*
X109180Y64049D01*
X109453Y64369D01*
X109673Y64727D01*
X109834Y65116D01*
X109932Y65525D01*
X109957Y65945D01*
X109932Y66364D01*
X109834Y66774D01*
X109673Y67162D01*
X109453Y67521D01*
X109180Y67841D01*
X108860Y68114D01*
X108501Y68334D01*
X108112Y68495D01*
X107703Y68594D01*
X107283Y68627D01*
X106864Y68594D01*
X106455Y68495D01*
X106066Y68334D01*
X105707Y68114D01*
X105387Y67841D01*
X105315Y67756D01*
X105243Y67841D01*
X104923Y68114D01*
X104564Y68334D01*
X104175Y68495D01*
X103766Y68594D01*
X103382Y68624D01*
Y124672D01*
X103526Y124761D01*
X103834Y125024D01*
X104098Y125332D01*
X104309Y125678D01*
X104464Y126052D01*
X104559Y126446D01*
X104583Y126850D01*
X104559Y127254D01*
X104464Y127649D01*
X104309Y128023D01*
X104098Y128369D01*
X103834Y128677D01*
X103526Y128940D01*
X103382Y129029D01*
Y129921D01*
G37*
G36*
X96374D02*X103382D01*
Y129029D01*
X103181Y129152D01*
X102806Y129307D01*
X102412Y129402D01*
X102008Y129433D01*
X101604Y129402D01*
X101210Y129307D01*
X100835Y129152D01*
X100490Y128940D01*
X100181Y128677D01*
X99918Y128369D01*
X99706Y128023D01*
X99551Y127649D01*
X99457Y127254D01*
X99425Y126850D01*
X99457Y126446D01*
X99551Y126052D01*
X99706Y125678D01*
X99918Y125332D01*
X100181Y125024D01*
X100490Y124761D01*
X100835Y124549D01*
X101210Y124394D01*
X101604Y124299D01*
X102008Y124267D01*
X102412Y124299D01*
X102806Y124394D01*
X103181Y124549D01*
X103382Y124672D01*
Y68624D01*
X103346Y68627D01*
X102927Y68594D01*
X102518Y68495D01*
X102129Y68334D01*
X101770Y68114D01*
X101450Y67841D01*
X101378Y67756D01*
X101306Y67841D01*
X100986Y68114D01*
X100627Y68334D01*
X100238Y68495D01*
X99829Y68594D01*
X99409Y68627D01*
X98990Y68594D01*
X98581Y68495D01*
X98192Y68334D01*
X97833Y68114D01*
X97513Y67841D01*
X97240Y67521D01*
X97020Y67162D01*
X96859Y66774D01*
X96761Y66364D01*
X96728Y65945D01*
X96761Y65525D01*
X96859Y65116D01*
X97020Y64727D01*
X97240Y64369D01*
X97513Y64049D01*
X97598Y63976D01*
X97513Y63904D01*
X97240Y63584D01*
X97020Y63225D01*
X96859Y62837D01*
X96761Y62427D01*
X96728Y62008D01*
X96761Y61588D01*
X96859Y61179D01*
X97020Y60790D01*
X97240Y60432D01*
X97513Y60112D01*
X97598Y60039D01*
X97513Y59967D01*
X97240Y59647D01*
X97020Y59288D01*
X96859Y58900D01*
X96761Y58490D01*
X96728Y58071D01*
X96761Y57651D01*
X96859Y57242D01*
X97020Y56853D01*
X97240Y56495D01*
X97513Y56175D01*
X97833Y55901D01*
X98192Y55681D01*
X98581Y55520D01*
X98990Y55422D01*
X99409Y55389D01*
X99829Y55422D01*
X100238Y55520D01*
X100627Y55681D01*
X100986Y55901D01*
X101306Y56175D01*
X101378Y56259D01*
X101450Y56175D01*
X101770Y55901D01*
X102129Y55681D01*
X102518Y55520D01*
X102927Y55422D01*
X103346Y55389D01*
X103382Y55392D01*
Y45027D01*
X102950Y44993D01*
X102526Y44891D01*
X102122Y44724D01*
X101750Y44496D01*
X101418Y44212D01*
X101134Y43880D01*
X100906Y43508D01*
X100739Y43104D01*
X100637Y42680D01*
X100602Y42244D01*
X100637Y41809D01*
X100739Y41384D01*
X100906Y40980D01*
X101134Y40608D01*
X101418Y40276D01*
X101750Y39992D01*
X102122Y39764D01*
X102526Y39597D01*
X102950Y39495D01*
X103382Y39461D01*
Y0D01*
X96374D01*
Y124386D01*
X96378Y124386D01*
X96782Y124417D01*
X97176Y124512D01*
X97551Y124667D01*
X97896Y124879D01*
X98204Y125142D01*
X98468Y125450D01*
X98679Y125796D01*
X98834Y126170D01*
X98929Y126564D01*
X98953Y126969D01*
X98929Y127373D01*
X98834Y127767D01*
X98679Y128141D01*
X98468Y128487D01*
X98204Y128795D01*
X97896Y129058D01*
X97551Y129270D01*
X97176Y129425D01*
X96782Y129520D01*
X96378Y129551D01*
X96374Y129551D01*
Y129921D01*
G37*
G36*
X92633D02*X96374D01*
Y129551D01*
X95974Y129520D01*
X95580Y129425D01*
X95205Y129270D01*
X94860Y129058D01*
X94552Y128795D01*
X94288Y128487D01*
X94077Y128141D01*
X93921Y127767D01*
X93827Y127373D01*
X93795Y126969D01*
X93827Y126564D01*
X93921Y126170D01*
X94077Y125796D01*
X94288Y125450D01*
X94552Y125142D01*
X94860Y124879D01*
X95205Y124667D01*
X95580Y124512D01*
X95974Y124417D01*
X96374Y124386D01*
Y0D01*
X92633D01*
Y44700D01*
X92638Y44699D01*
X93104Y44736D01*
X93558Y44845D01*
X93990Y45024D01*
X94388Y45268D01*
X94743Y45572D01*
X95047Y45927D01*
X95291Y46325D01*
X95470Y46757D01*
X95579Y47211D01*
X95606Y47677D01*
X95579Y48143D01*
X95470Y48597D01*
X95291Y49029D01*
X95047Y49428D01*
X94743Y49783D01*
X94388Y50086D01*
X93990Y50330D01*
X93558Y50509D01*
X93104Y50618D01*
X92638Y50655D01*
X92633Y50655D01*
Y125441D01*
X92641Y125450D01*
X92853Y125796D01*
X93008Y126170D01*
X93102Y126564D01*
X93126Y126969D01*
X93102Y127373D01*
X93008Y127767D01*
X92853Y128141D01*
X92641Y128487D01*
X92633Y128496D01*
Y129921D01*
G37*
G36*
X78733D02*X92633D01*
Y128496D01*
X92378Y128795D01*
X92069Y129058D01*
X91724Y129270D01*
X91349Y129425D01*
X90955Y129520D01*
X90551Y129551D01*
X90147Y129520D01*
X89753Y129425D01*
X89379Y129270D01*
X89033Y129058D01*
X88725Y128795D01*
X88462Y128487D01*
X88250Y128141D01*
X88095Y127767D01*
X88000Y127373D01*
X87968Y126969D01*
X88000Y126564D01*
X88095Y126170D01*
X88250Y125796D01*
X88462Y125450D01*
X88725Y125142D01*
X89033Y124879D01*
X89379Y124667D01*
X89753Y124512D01*
X90147Y124417D01*
X90551Y124386D01*
X90955Y124417D01*
X91349Y124512D01*
X91724Y124667D01*
X92069Y124879D01*
X92378Y125142D01*
X92633Y125441D01*
Y50655D01*
X92172Y50618D01*
X91718Y50509D01*
X91286Y50330D01*
X90887Y50086D01*
X90532Y49783D01*
X90229Y49428D01*
X89985Y49029D01*
X89806Y48597D01*
X89697Y48143D01*
X89660Y47677D01*
X89697Y47211D01*
X89806Y46757D01*
X89985Y46325D01*
X90229Y45927D01*
X90532Y45572D01*
X90887Y45268D01*
X91286Y45024D01*
X91718Y44845D01*
X92172Y44736D01*
X92633Y44700D01*
Y0D01*
X78733D01*
Y7254D01*
X78740Y7254D01*
X79453Y7310D01*
X80149Y7477D01*
X80809Y7750D01*
X81201Y7990D01*
X81592Y7750D01*
X82253Y7477D01*
X82948Y7310D01*
X83661Y7254D01*
X84374Y7310D01*
X85070Y7477D01*
X85730Y7750D01*
X86340Y8124D01*
X86884Y8588D01*
X87349Y9132D01*
X87722Y9742D01*
X87996Y10403D01*
X88163Y11098D01*
X88205Y11811D01*
X88163Y12524D01*
X87996Y13219D01*
X87764Y13780D01*
X87996Y14340D01*
X88163Y15035D01*
X88205Y15748D01*
X88163Y16461D01*
X87996Y17156D01*
X87722Y17817D01*
X87349Y18427D01*
X86884Y18971D01*
X86340Y19435D01*
X85730Y19809D01*
X85070Y20082D01*
X84374Y20249D01*
X83661Y20306D01*
X82948Y20249D01*
X82253Y20082D01*
X81592Y19809D01*
X81201Y19569D01*
X80809Y19809D01*
X80149Y20082D01*
X79453Y20249D01*
X78740Y20306D01*
X78733Y20305D01*
Y61889D01*
X85140D01*
X85226Y61683D01*
X85462Y61297D01*
X85756Y60953D01*
X86100Y60659D01*
X86486Y60423D01*
X86904Y60249D01*
X87344Y60144D01*
X87795Y60108D01*
X88246Y60144D01*
X88686Y60249D01*
X89105Y60423D01*
X89490Y60659D01*
X89834Y60953D01*
X90128Y61297D01*
X90365Y61683D01*
X90538Y62101D01*
X90644Y62541D01*
X90670Y62992D01*
X90644Y63443D01*
X90538Y63883D01*
X90365Y64301D01*
X90128Y64687D01*
X89834Y65031D01*
X89490Y65325D01*
X89105Y65562D01*
X88686Y65735D01*
X88246Y65840D01*
X87795Y65876D01*
X87344Y65840D01*
X86904Y65735D01*
X86486Y65562D01*
X86100Y65325D01*
X86043Y65277D01*
X78733D01*
Y129921D01*
G37*
G36*
Y0D02*X60625D01*
Y55983D01*
X63382D01*
X63421Y55967D01*
X63695Y55901D01*
X63976Y55879D01*
X64258Y55901D01*
X64532Y55967D01*
X64793Y56075D01*
X65033Y56223D01*
X65244Y56410D01*
X70723Y61889D01*
X78733D01*
Y20305D01*
X78027Y20249D01*
X77332Y20082D01*
X76671Y19809D01*
X76280Y19569D01*
X75888Y19809D01*
X75227Y20082D01*
X74532Y20249D01*
X73819Y20306D01*
X73106Y20249D01*
X72411Y20082D01*
X71750Y19809D01*
X71140Y19435D01*
X70596Y18971D01*
X70132Y18427D01*
X69758Y17817D01*
X69484Y17156D01*
X69317Y16461D01*
X69261Y15748D01*
X69317Y15035D01*
X69484Y14340D01*
X69716Y13780D01*
X69484Y13219D01*
X69317Y12524D01*
X69261Y11811D01*
X69317Y11098D01*
X69484Y10403D01*
X69758Y9742D01*
X70132Y9132D01*
X70596Y8588D01*
X71140Y8124D01*
X71750Y7750D01*
X72411Y7477D01*
X73106Y7310D01*
X73819Y7254D01*
X74532Y7310D01*
X75227Y7477D01*
X75888Y7750D01*
X76280Y7990D01*
X76671Y7750D01*
X77332Y7477D01*
X78027Y7310D01*
X78733Y7254D01*
Y0D01*
G37*
G36*
X60625Y129921D02*X78733D01*
Y65277D01*
X70476D01*
X70437Y65293D01*
X70163Y65358D01*
X69882Y65381D01*
X69601Y65358D01*
X69326Y65293D01*
X69066Y65185D01*
X68825Y65037D01*
X68615Y64850D01*
X63136Y59371D01*
X60625D01*
Y61588D01*
X60630Y61588D01*
X61158Y61629D01*
X61672Y61753D01*
X62161Y61955D01*
X62612Y62232D01*
X63015Y62576D01*
X63359Y62978D01*
X63635Y63429D01*
X63838Y63918D01*
X63961Y64433D01*
X63992Y64961D01*
X63961Y65488D01*
X63838Y66003D01*
X63635Y66492D01*
X63359Y66943D01*
X63015Y67346D01*
X62612Y67689D01*
X62161Y67966D01*
X61672Y68168D01*
X61158Y68292D01*
X60630Y68333D01*
X60625Y68333D01*
Y124383D01*
X60908Y124557D01*
X61252Y124851D01*
X61546Y125195D01*
X61782Y125581D01*
X61955Y125999D01*
X62061Y126439D01*
X62088Y126890D01*
X62061Y127341D01*
X61955Y127781D01*
X61782Y128199D01*
X61546Y128585D01*
X61252Y128929D01*
X60908Y129223D01*
X60625Y129396D01*
Y129921D01*
G37*
G36*
Y0D02*X52798D01*
Y55983D01*
X60625D01*
Y0D01*
G37*
G36*
X52798Y129921D02*X60625D01*
Y129396D01*
X60522Y129459D01*
X60104Y129632D01*
X59664Y129738D01*
X59213Y129774D01*
X58761Y129738D01*
X58321Y129632D01*
X57903Y129459D01*
X57518Y129223D01*
X57173Y128929D01*
X56879Y128585D01*
X56643Y128199D01*
X56470Y127781D01*
X56364Y127341D01*
X56329Y126890D01*
X56364Y126439D01*
X56470Y125999D01*
X56643Y125581D01*
X56879Y125195D01*
X57173Y124851D01*
X57518Y124557D01*
X57903Y124320D01*
X58321Y124147D01*
X58761Y124041D01*
X59213Y124006D01*
X59664Y124041D01*
X60104Y124147D01*
X60522Y124320D01*
X60625Y124383D01*
Y68333D01*
X60102Y68292D01*
X59588Y68168D01*
X59099Y67966D01*
X58647Y67689D01*
X58245Y67346D01*
X57901Y66943D01*
X57625Y66492D01*
X57422Y66003D01*
X57299Y65488D01*
X57257Y64961D01*
X57299Y64433D01*
X57422Y63918D01*
X57625Y63429D01*
X57901Y62978D01*
X58245Y62576D01*
X58647Y62232D01*
X59099Y61955D01*
X59588Y61753D01*
X60102Y61629D01*
X60625Y61588D01*
Y59371D01*
X52798D01*
Y83221D01*
X52908Y83401D01*
X53099Y83861D01*
X53215Y84346D01*
X53244Y84843D01*
X53215Y85339D01*
X53099Y85824D01*
X52908Y86284D01*
X52798Y86464D01*
Y88564D01*
X52832Y88647D01*
X52941Y89101D01*
X52969Y89567D01*
X52941Y90033D01*
X52832Y90487D01*
X52798Y90570D01*
Y124322D01*
X52992Y124307D01*
X53396Y124339D01*
X53790Y124433D01*
X54165Y124588D01*
X54510Y124800D01*
X54819Y125063D01*
X55082Y125372D01*
X55294Y125717D01*
X55449Y126092D01*
X55543Y126486D01*
X55567Y126890D01*
X55543Y127294D01*
X55449Y127688D01*
X55294Y128062D01*
X55082Y128408D01*
X54819Y128716D01*
X54510Y128979D01*
X54165Y129191D01*
X53790Y129346D01*
X53396Y129441D01*
X52992Y129473D01*
X52798Y129457D01*
Y129921D01*
G37*
G36*
Y86464D02*X52648Y86709D01*
X52324Y87088D01*
X51996Y87368D01*
X52106Y87461D01*
X52409Y87817D01*
X52653Y88215D01*
X52798Y88564D01*
Y86464D01*
G37*
G36*
X20072Y61390D02*X24936Y56526D01*
X24980Y56476D01*
X25182Y56303D01*
X25410Y56163D01*
X25656Y56061D01*
X25915Y55999D01*
X25916Y55999D01*
X26181Y55978D01*
X26247Y55983D01*
X52798D01*
Y0D01*
X20072D01*
Y29671D01*
X20079Y29670D01*
X20734Y29722D01*
X21373Y29875D01*
X21592Y29966D01*
X22195Y29821D01*
X22835Y29771D01*
X23474Y29821D01*
X24098Y29971D01*
X24690Y30216D01*
X25237Y30551D01*
X25725Y30968D01*
X26142Y31456D01*
X26477Y32003D01*
X26722Y32595D01*
X26872Y33219D01*
X26910Y33858D01*
X26872Y34498D01*
X26722Y35121D01*
X26485Y35694D01*
X26531Y35807D01*
X26674Y36400D01*
X26710Y37008D01*
X26674Y37616D01*
X26531Y38209D01*
X26298Y38773D01*
X25979Y39293D01*
X25583Y39756D01*
X25119Y40152D01*
X24599Y40471D01*
X24036Y40705D01*
X23443Y40847D01*
X22835Y40895D01*
X22227Y40847D01*
X21906Y40770D01*
X21373Y40991D01*
X20734Y41144D01*
X20079Y41196D01*
X20072Y41195D01*
Y61390D01*
G37*
G36*
X46531Y82652D02*X46621Y82757D01*
X46857Y83142D01*
X47030Y83559D01*
X47086Y83795D01*
X47250Y83401D01*
X47510Y82976D01*
X47833Y82597D01*
X48212Y82274D01*
X48637Y82013D01*
X49098Y81823D01*
X49582Y81706D01*
X50079Y81667D01*
X50575Y81706D01*
X51060Y81823D01*
X51520Y82013D01*
X51945Y82274D01*
X52324Y82597D01*
X52648Y82976D01*
X52798Y83221D01*
Y59371D01*
X46531D01*
Y82652D01*
G37*
G36*
Y129921D02*X52798D01*
Y129457D01*
X52588Y129441D01*
X52194Y129346D01*
X51819Y129191D01*
X51474Y128979D01*
X51166Y128716D01*
X50902Y128408D01*
X50691Y128062D01*
X50536Y127688D01*
X50441Y127294D01*
X50409Y126890D01*
X50441Y126486D01*
X50536Y126092D01*
X50691Y125717D01*
X50902Y125372D01*
X51166Y125063D01*
X51474Y124800D01*
X51819Y124588D01*
X52194Y124433D01*
X52588Y124339D01*
X52798Y124322D01*
Y90570D01*
X52653Y90919D01*
X52409Y91317D01*
X52106Y91673D01*
X51750Y91976D01*
X51352Y92220D01*
X50920Y92399D01*
X50466Y92508D01*
X50000Y92545D01*
X49534Y92508D01*
X49080Y92399D01*
X48648Y92220D01*
X48250Y91976D01*
X47894Y91673D01*
X47591Y91317D01*
X47347Y90919D01*
X47168Y90487D01*
X47059Y90033D01*
X47022Y89567D01*
X47059Y89101D01*
X47168Y88647D01*
X47347Y88215D01*
X47591Y87817D01*
X47894Y87461D01*
X48083Y87301D01*
X47833Y87088D01*
X47510Y86709D01*
X47250Y86284D01*
X47059Y85824D01*
X46974Y85472D01*
X46857Y85756D01*
X46621Y86141D01*
X46531Y86245D01*
Y124386D01*
X46535Y124386D01*
X46939Y124417D01*
X47334Y124512D01*
X47708Y124667D01*
X48054Y124879D01*
X48362Y125142D01*
X48625Y125450D01*
X48837Y125796D01*
X48992Y126170D01*
X49087Y126564D01*
X49110Y126969D01*
X49087Y127373D01*
X48992Y127767D01*
X48837Y128141D01*
X48625Y128487D01*
X48362Y128795D01*
X48054Y129058D01*
X47708Y129270D01*
X47334Y129425D01*
X46939Y129520D01*
X46535Y129551D01*
X46531Y129551D01*
Y129921D01*
G37*
G36*
X20072D02*X46531D01*
Y129551D01*
X46131Y129520D01*
X45737Y129425D01*
X45363Y129270D01*
X45017Y129058D01*
X44709Y128795D01*
X44446Y128487D01*
X44234Y128141D01*
X44079Y127767D01*
X43984Y127373D01*
X43952Y126969D01*
X43984Y126564D01*
X44079Y126170D01*
X44234Y125796D01*
X44446Y125450D01*
X44709Y125142D01*
X45017Y124879D01*
X45363Y124667D01*
X45737Y124512D01*
X46131Y124417D01*
X46531Y124386D01*
Y86245D01*
X46327Y86485D01*
X45984Y86778D01*
X45598Y87014D01*
X45181Y87187D01*
X44742Y87293D01*
X44291Y87328D01*
X43841Y87293D01*
X43402Y87187D01*
X42984Y87014D01*
X42599Y86778D01*
X42255Y86485D01*
X41962Y86141D01*
X41726Y85756D01*
X41553Y85339D01*
X41448Y84899D01*
X41412Y84449D01*
X41448Y83998D01*
X41553Y83559D01*
X41726Y83142D01*
X41962Y82757D01*
X42255Y82413D01*
X42599Y82120D01*
X42984Y81883D01*
X43402Y81711D01*
X43841Y81605D01*
X44291Y81570D01*
X44742Y81605D01*
X45181Y81711D01*
X45598Y81883D01*
X45984Y82120D01*
X46327Y82413D01*
X46531Y82652D01*
Y59371D01*
X26883D01*
X22064Y64190D01*
X21865Y64367D01*
X21638Y64506D01*
X21391Y64608D01*
X21360Y64616D01*
X20072Y65903D01*
Y69760D01*
X20225Y69124D01*
X20671Y68048D01*
X21279Y67055D01*
X22036Y66169D01*
X22921Y65413D01*
X23914Y64805D01*
X24990Y64359D01*
X25400Y64261D01*
X25693Y64139D01*
X26614Y63918D01*
X27559Y63844D01*
X28504Y63918D01*
X29425Y64139D01*
X30300Y64502D01*
X31108Y64997D01*
X31469Y65305D01*
X31646Y65413D01*
X32531Y66169D01*
X33288Y67055D01*
X33896Y68048D01*
X34342Y69124D01*
X34614Y70256D01*
X34682Y71417D01*
Y117520D01*
X34614Y118681D01*
X34342Y119813D01*
X33896Y120889D01*
X33288Y121882D01*
X32531Y122768D01*
X31646Y123524D01*
X30653Y124132D01*
X29577Y124578D01*
X29481Y124601D01*
X29364Y124649D01*
X28473Y124863D01*
X27559Y124935D01*
X27459Y124927D01*
X27283Y124941D01*
X26122Y124850D01*
X24990Y124578D01*
X23914Y124132D01*
X22921Y123524D01*
X22036Y122768D01*
X21279Y121882D01*
X20671Y120889D01*
X20225Y119813D01*
X20072Y119177D01*
Y129921D01*
G37*
G36*
Y65903D02*X19804Y66171D01*
Y82354D01*
X19885Y82403D01*
Y71417D01*
X19953Y70256D01*
X20072Y69760D01*
Y65903D01*
G37*
G36*
X5900Y20638D02*X5906Y20638D01*
X6372Y20675D01*
X6828Y20784D01*
X7260Y20963D01*
X7382Y21038D01*
X7503Y20963D01*
X7936Y20784D01*
X8391Y20675D01*
X8858Y20638D01*
X9325Y20675D01*
X9780Y20784D01*
X10213Y20963D01*
X10612Y21208D01*
X10968Y21512D01*
X11273Y21868D01*
X11517Y22267D01*
X11696Y22700D01*
X11806Y23155D01*
X11833Y23622D01*
X11806Y24089D01*
X11696Y24544D01*
X11517Y24977D01*
X11443Y25098D01*
X11517Y25220D01*
X11696Y25653D01*
X11806Y26108D01*
X11833Y26575D01*
X11806Y27042D01*
X11696Y27497D01*
X11517Y27930D01*
X11273Y28329D01*
X10968Y28685D01*
X10612Y28989D01*
X10213Y29234D01*
X9780Y29413D01*
X9325Y29522D01*
X8858Y29559D01*
X8391Y29522D01*
X7936Y29413D01*
X7503Y29234D01*
X7286Y29101D01*
X7215Y29144D01*
X6797Y29318D01*
X6357Y29423D01*
X5906Y29459D01*
X5900Y29458D01*
Y110505D01*
X5906Y110504D01*
X6479Y110549D01*
X7039Y110684D01*
X7571Y110904D01*
X8062Y111205D01*
X8500Y111579D01*
X8874Y112017D01*
X9175Y112508D01*
X9395Y113039D01*
X9529Y113599D01*
X9563Y114173D01*
X9529Y114747D01*
X9395Y115307D01*
X9253Y115650D01*
X9395Y115992D01*
X9529Y116552D01*
X9563Y117126D01*
X9529Y117700D01*
X9395Y118260D01*
X9253Y118602D01*
X9395Y118945D01*
X9529Y119505D01*
X9563Y120079D01*
X9529Y120653D01*
X9395Y121213D01*
X9253Y121555D01*
X9395Y121898D01*
X9529Y122458D01*
X9563Y123031D01*
X9529Y123605D01*
X9395Y124165D01*
X9175Y124697D01*
X8874Y125188D01*
X8500Y125626D01*
X8062Y126000D01*
X7571Y126301D01*
X7039Y126521D01*
X6479Y126655D01*
X5906Y126700D01*
X5900Y126700D01*
Y129921D01*
X20072D01*
Y119177D01*
X19953Y118681D01*
X19885Y117520D01*
Y87676D01*
X19556Y87877D01*
X19094Y88068D01*
X18608Y88185D01*
X18110Y88224D01*
X17612Y88185D01*
X17126Y88068D01*
X16664Y87877D01*
X16238Y87616D01*
X15858Y87291D01*
X15534Y86911D01*
X15273Y86485D01*
X15081Y86024D01*
X14965Y85538D01*
X14925Y85039D01*
X14965Y84541D01*
X15081Y84055D01*
X15273Y83594D01*
X15534Y83167D01*
X15858Y82787D01*
X16238Y82463D01*
X16416Y82354D01*
Y65748D01*
X16432Y65482D01*
X16494Y65223D01*
X16596Y64977D01*
X16736Y64749D01*
X16909Y64547D01*
X17112Y64373D01*
X17339Y64234D01*
X17585Y64132D01*
X17617Y64125D01*
X19243Y62498D01*
X19250Y62467D01*
X19352Y62221D01*
X19492Y61993D01*
X19668Y61794D01*
X20072Y61390D01*
Y41195D01*
X19424Y41144D01*
X18785Y40991D01*
X18252Y40770D01*
X17931Y40847D01*
X17323Y40895D01*
X16715Y40847D01*
X16122Y40705D01*
X15558Y40471D01*
X15038Y40152D01*
X14574Y39756D01*
X14178Y39293D01*
X13860Y38773D01*
X13626Y38209D01*
X13484Y37616D01*
X13436Y37008D01*
X13484Y36400D01*
X13626Y35807D01*
X13673Y35694D01*
X13435Y35121D01*
X13286Y34498D01*
X13235Y33858D01*
X13286Y33219D01*
X13435Y32595D01*
X13681Y32003D01*
X14016Y31456D01*
X14432Y30968D01*
X14920Y30551D01*
X15467Y30216D01*
X16060Y29971D01*
X16683Y29821D01*
X17323Y29771D01*
X17962Y29821D01*
X18566Y29966D01*
X18785Y29875D01*
X19424Y29722D01*
X20072Y29671D01*
Y0D01*
X5900D01*
Y20638D01*
G37*
G36*
Y29458D02*X5454Y29423D01*
X5014Y29318D01*
X4596Y29144D01*
X4333Y28983D01*
X4216Y29055D01*
X3813Y29222D01*
X3388Y29324D01*
X2953Y29358D01*
X2517Y29324D01*
X2093Y29222D01*
X1689Y29055D01*
X1317Y28827D01*
X984Y28543D01*
X701Y28211D01*
X473Y27839D01*
X305Y27435D01*
X203Y27010D01*
X169Y26575D01*
X203Y26139D01*
X305Y25715D01*
X436Y25400D01*
X204Y25022D01*
X39Y24624D01*
Y129921D01*
X5900D01*
Y126700D01*
X5332Y126655D01*
X4772Y126521D01*
X4240Y126301D01*
X3749Y126000D01*
X3311Y125626D01*
X2937Y125188D01*
X2636Y124697D01*
X2416Y124165D01*
X2282Y123605D01*
X2237Y123031D01*
X2282Y122458D01*
X2416Y121898D01*
X2558Y121555D01*
X2416Y121213D01*
X2282Y120653D01*
X2237Y120079D01*
X2282Y119505D01*
X2416Y118945D01*
X2558Y118602D01*
X2416Y118260D01*
X2282Y117700D01*
X2237Y117126D01*
X2282Y116552D01*
X2416Y115992D01*
X2558Y115650D01*
X2416Y115307D01*
X2282Y114747D01*
X2237Y114173D01*
X2282Y113599D01*
X2416Y113039D01*
X2636Y112508D01*
X2937Y112017D01*
X3311Y111579D01*
X3749Y111205D01*
X4240Y110904D01*
X4772Y110684D01*
X5332Y110549D01*
X5900Y110505D01*
Y29458D01*
G37*
G36*
X39Y0D02*Y22620D01*
X204Y22222D01*
X457Y21809D01*
X772Y21441D01*
X1140Y21127D01*
X1552Y20874D01*
X2000Y20689D01*
X2470Y20576D01*
X2953Y20538D01*
X3435Y20576D01*
X3906Y20689D01*
X4353Y20874D01*
X4525Y20979D01*
X4551Y20963D01*
X4983Y20784D01*
X5439Y20675D01*
X5900Y20638D01*
Y0D01*
X39D01*
G37*
G54D238*X27283Y71417D02*Y117520D01*
G54D239*X53937Y73622D02*X54331D01*
X51969D02*X53937Y75591D01*
X49606Y90748D02*X49803D01*
G54D240*X20866Y62992D02*X18110Y65748D01*
X26181Y57677D02*X20866Y62992D01*
X18110Y65748D02*Y85236D01*
X69882Y63583D02*X63976Y57677D01*
X87402Y63583D02*X70079D01*
X69882Y63780D01*
G54D239*X92717Y47795D02*X92520D01*
G54D240*X63976Y57677D02*X26181D01*
G54D241*X60630Y67323D02*Y63780D01*
G54D242*X146654Y107283D02*Y82677D01*
X145669Y81693D01*
G54D238*X146063Y67126D02*Y71063D01*
X121654Y95472D01*
G54D239*X116142Y70669D02*Y70472D01*
G54D242*X111220Y126969D02*X137795D01*
X138780Y127953D01*
G54D238*X121654Y95472D02*Y117913D01*
G54D243*X140157Y125000D02*Y96457D01*
G54D242*X135433Y60039D02*X135039D01*
X111220Y83858D01*
Y126772D01*
G54D239*X135039Y35630D02*X135433D01*
G54D244*X138780Y95472D03*
X141732D03*
X138780Y98425D03*
X141732D03*
X146654Y107283D03*
X146260Y80512D03*
X135827Y60039D03*
X147835Y68898D03*
X144882D03*
X103386Y42244D03*
X87795Y62992D03*
X107283Y65945D03*
Y58071D03*
Y62008D03*
X117520Y71654D03*
X103346Y65945D03*
X99409D03*
Y62008D03*
Y58071D03*
X103346D03*
Y62008D03*
X92638Y47677D03*
X60630Y64961D03*
X22835Y33858D03*
Y37008D03*
X20079Y33858D03*
X17323D03*
X20079Y37008D03*
X17323D03*
X8858Y26575D03*
Y23622D03*
X5906D03*
X2953Y26575D03*
Y23622D03*
X5906Y26575D03*
X147835Y65945D03*
X144882D03*
X135827Y26772D03*
Y24016D03*
X133071D03*
Y26772D03*
X130315D03*
Y24016D03*
X135433Y35630D03*
X73819Y15748D03*
X78740D03*
X83661D03*
Y11811D03*
X78740D03*
X73819D03*
X138780Y126969D03*
X141732D03*
X138780Y124016D03*
X141732D03*
X123031Y119094D03*
X120079Y116142D03*
X123031D03*
Y113189D03*
X120079D03*
Y119094D03*
X59213Y126890D03*
X90551Y126969D03*
X102008Y126850D03*
X52992Y126890D03*
X96378Y126969D03*
G54D245*X27559Y110236D03*
Y113189D03*
Y116142D03*
Y78740D03*
Y75787D03*
Y72835D03*
Y69882D03*
G54D244*X18110Y85039D03*
G54D245*X27559Y119094D03*
G54D244*X5906Y123031D03*
Y120079D03*
Y117126D03*
Y114173D03*
X50079Y84843D03*
X44291Y84449D03*
X50000Y89567D03*
X46535Y126969D03*
G54D246*M02*
