M48
INCH
T247C0.012
%
T247
X0000300Y0002660
X0000300Y0002360
X0000590Y0012300
X0000590Y0012010
X0000590Y0011710
X0000590Y0011420
X0000590Y0002660
X0000590Y0002360
X0000890Y0002660
X0000890Y0002360
X0001730Y0003700
X0001730Y0003390
X0001810Y0008500
X0002010Y0003700
X0002010Y0003390
X0002280Y0003700
X0002280Y0003390
X0002760Y0011910
X0002760Y0011610
X0002760Y0011320
X0002760Y0011020
X0002760Y0007870
X0002760Y0007580
X0002760Y0007280
X0002760Y0006990
X0004430Y0008440
X0004650Y0012700
X0005000Y0008960
X0005010Y0008480
X0005300Y0012690
X0005920Y0012690
X0006060Y0006500
X0007380Y0001570
X0007380Y0001180
X0007870Y0001570
X0007870Y0001180
X0008370Y0001570
X0008370Y0001180
X0008780Y0006300
X0009060Y0012700
X0009260Y0004770
X0009640Y0012700
X0009940Y0006590
X0009940Y0006200
X0009940Y0005810
X0010200Y0012690
X0010330Y0006590
X0010330Y0006200
X0010330Y0005810
X0010340Y0004220
X0010730Y0006590
X0010730Y0006200
X0010730Y0005810
X0011750Y0007170
X0012010Y0011910
X0012010Y0011610
X0012010Y0011320
X0012300Y0011910
X0012300Y0011610
X0012300Y0011320
X0013030Y0002680
X0013030Y0002400
X0013310Y0002680
X0013310Y0002400
X0013540Y0003560
X0013580Y0006000
X0013580Y0002680
X0013580Y0002400
X0013880Y0012700
X0013880Y0012400
X0013880Y0009840
X0013880Y0009550
X0014170Y0012700
X0014170Y0012400
X0014170Y0009840
X0014170Y0009550
X0014490Y0006890
X0014490Y0006590
X0014630Y0008050
X0014670Y0010730
X0014780Y0006890
X0014780Y0006590
M30
