G04 start of page 11 for group -4015 idx -4015 *
G04 Title: bluenodes actor 52832 19, toppaste *
G04 Creator: pcb.exe 20130205 *
G04 CreationDate: 10.05.2017 20:52:52 UTC *
G04 Format: Gerber/RS-274X *
G04 PCB-Dimensions (mil): 1496.06 1299.21 *
G04 PCB-Coordinate-Origin: lower left *
%MOIN*%
%FSLAX25Y25*%
%LNTOPPASTE*%
%ADD307R,0.0591X0.0591*%
%ADD306C,0.0630*%
%ADD305R,0.0630X0.0630*%
%ADD304R,0.0394X0.0394*%
%ADD303R,0.0280X0.0280*%
%ADD302R,0.0236X0.0236*%
%ADD301C,0.0787*%
%ADD300R,0.2280X0.2280*%
%ADD299R,0.0630X0.0630*%
%ADD298C,0.0001*%
%ADD297R,0.0630X0.0630*%
%ADD296R,0.0866X0.0866*%
%ADD295R,0.0551X0.0551*%
%ADD294R,0.0276X0.0276*%
%ADD293R,0.0315X0.0315*%
G54D293*X134252Y70079D02*X137401D01*
X134252Y60079D02*X137401D01*
X109448Y70079D02*X112598D01*
X109448Y60079D02*X112598D01*
G54D294*X100787Y48818D02*Y48031D01*
Y43701D02*Y42914D01*
G54D295*X38780Y16142D02*X46654D01*
X38780Y25591D02*X46654D01*
X38780Y35433D02*X46654D01*
G54D296*X9646Y5709D02*X23031D01*
X10039Y45866D02*X23425D01*
G54D297*X27773Y123925D02*Y111327D01*
X5727Y123925D02*Y111327D01*
X5791Y101122D02*Y88524D01*
X27837Y101122D02*Y88524D01*
G54D298*G36*
X21933Y62829D02*Y54959D01*
X29803D01*
Y62829D01*
X21933D01*
G37*
G36*
X6233D02*Y54959D01*
X14103D01*
Y62829D01*
X6233D01*
G37*
G54D299*X139944Y107535D02*X145444D01*
X139944Y125535D02*X145444D01*
G54D300*X119594Y116535D02*X121194D01*
G54D299*X140022Y79189D02*X145522D01*
X140022Y97189D02*X145522D01*
G54D300*X119672Y88189D02*X121272D01*
G54D294*X73161Y110941D02*X73948D01*
X78278D02*X79065D01*
X79262Y104452D02*Y103665D01*
Y99335D02*Y98548D01*
G54D297*X95538Y80776D02*X96324D01*
X95538Y69754D02*X96324D01*
G54D298*G36*
X91931Y94683D02*Y86813D01*
X99801D01*
Y94683D01*
X91931D01*
G37*
G54D301*X95866Y106448D03*
G54D294*X97207Y117428D02*Y116641D01*
Y112311D02*Y111524D01*
X72994Y104437D02*Y103650D01*
Y99320D02*Y98533D01*
X90120Y117232D02*X90907D01*
X85003D02*X85790D01*
X78111D02*X78898D01*
X72994D02*X73781D01*
G54D298*G36*
X62169Y79483D02*Y71613D01*
X70039D01*
Y79483D01*
X62169D01*
G37*
G36*
Y95183D02*Y87313D01*
X70039D01*
Y95183D01*
X62169D01*
G37*
G54D302*X65137Y100539D02*X67893D01*
X65137Y104476D02*X67893D01*
X65137Y108413D02*X67893D01*
X65137Y112350D02*X67893D01*
X65137Y116287D02*X67893D01*
X43877D02*X46633D01*
X43877Y112350D02*X46633D01*
X43877Y108413D02*X46633D01*
X43877Y104476D02*X46633D01*
X43877Y100539D02*X46633D01*
G54D303*X53781Y85441D02*Y84241D01*
X49981Y85441D02*Y84241D01*
X46181Y85441D02*Y84241D01*
Y75241D02*Y74041D01*
X53781Y75241D02*Y74041D01*
G54D304*X53702Y65657D02*X54096D01*
X47010D02*X47404D01*
G54D305*X44331Y126732D02*X100236D01*
X48622Y57283D02*X104528D01*
G54D295*X102953Y35039D02*X110827D01*
X102953Y25591D02*X110827D01*
X102953Y15748D02*X110827D01*
G54D296*X126575Y45472D02*X139961D01*
X126181Y5315D02*X139567D01*
G54D306*X58268Y68504D02*Y68307D01*
X106890Y44291D02*Y44094D01*
G54D296*X69567Y14370D02*X82559D01*
X69567Y45866D02*X82559D01*
G54D307*X77913Y92244D02*X83819D01*
X77913Y70591D02*X83819D01*
X28819Y77283D02*Y71378D01*
X7165Y77283D02*Y71378D01*
M02*
