G04 start of page 8 for group -4062 idx -4062 *
G04 Title: bluenodes actor 52832 19, soldermask *
G04 Creator: pcb.exe 20130205 *
G04 CreationDate: 10.05.2017 20:52:52 UTC *
G04 Format: Gerber/RS-274X *
G04 PCB-Dimensions (mil): 1496.06 1299.21 *
G04 PCB-Coordinate-Origin: lower left *
%MOIN*%
%FSLAX25Y25*%
%LNBOTTOMMASK*%
%ADD285C,0.0001*%
%ADD284R,0.0613X0.0613*%
%ADD283R,0.0257X0.0257*%
%ADD282R,0.0986X0.0986*%
%ADD281R,0.0632X0.0632*%
%ADD280R,0.0494X0.0494*%
%ADD279R,0.0748X0.0748*%
%ADD278R,0.0159X0.0159*%
%ADD277R,0.0591X0.0591*%
%ADD276R,0.0106X0.0106*%
%ADD275C,0.0830*%
%ADD274R,0.0376X0.0376*%
%ADD273R,0.0580X0.0580*%
%ADD272R,0.0594X0.0594*%
%ADD271R,0.0360X0.0360*%
%ADD270R,0.0731X0.0731*%
%ADD269R,0.0395X0.0395*%
%ADD268R,0.0375X0.0375*%
%ADD267R,0.0475X0.0475*%
%ADD266C,0.0729*%
%ADD265R,0.0454X0.0454*%
G54D265*X18307Y89567D02*Y87992D01*
X8268Y89567D02*Y87992D01*
G54D266*X22598Y90512D02*Y90315D01*
G54D267*X77559Y68701D02*Y67914D01*
Y73818D02*Y73031D01*
Y80709D02*Y79922D01*
Y85826D02*Y85039D01*
G54D268*X65748Y120472D02*X69685D01*
G54D269*X61378Y84803D02*X67323D01*
X48346Y74803D02*X54291D01*
X48346Y94803D02*X54291D01*
G54D270*X5118Y46062D02*X9448D01*
X5118Y35040D02*X9448D01*
G54D265*X18307Y52165D02*Y50591D01*
X8268Y52165D02*Y50591D01*
G54D270*X18307Y46062D02*X22637D01*
X18307Y35040D02*X22637D01*
G54D269*X61378Y64803D02*X67323D01*
G54D271*X65748Y57390D02*Y56390D01*
X59748Y57390D02*Y56390D01*
X65748Y49713D02*Y48713D01*
X59748Y49713D02*Y48713D01*
G54D272*X46180Y41969D02*X46574D01*
X39488D02*X39882D01*
G54D273*X45899Y48229D02*X47099D01*
G54D274*X55945Y27283D02*X58701D01*
G54D275*X53032Y42480D02*X53033D01*
G54D273*X35699Y48229D02*X36899D01*
X35699Y55829D02*X36899D01*
X45899D02*X47099D01*
G54D269*X61378Y104803D02*X67323D01*
G54D267*X77560Y62008D02*X78347D01*
X82677D02*X83464D01*
G54D276*X91083Y58661D02*X93957D01*
X91083Y60236D02*X93957D01*
X91083Y61811D02*X93957D01*
X91083Y63386D02*X93957D01*
X91083Y64961D02*X93957D01*
X91083Y66535D02*X93957D01*
X91083Y68110D02*X93957D01*
G54D267*X84055Y68898D02*Y68111D01*
Y74015D02*Y73228D01*
Y86023D02*Y85236D01*
Y80906D02*Y80119D01*
G54D277*X78858Y93465D02*X90276D01*
G54D268*X65748Y126772D02*X69685D01*
G54D278*X94685Y124961D02*X100591D01*
G54D279*X95394Y120433D02*X99173D01*
G54D268*X80315Y126772D02*X84252D01*
X80315Y120472D02*X84252D01*
G54D279*X87756Y120433D02*X90157D01*
G54D267*X82637Y45866D02*X83424D01*
X77520D02*X78307D01*
X82677Y51142D02*X83464D01*
X77560D02*X78347D01*
X82677Y56929D02*X83464D01*
X77560D02*X78347D01*
G54D276*X100591Y48878D02*Y46004D01*
X99016Y48878D02*Y46004D01*
X105315Y48878D02*Y46004D01*
X103740Y48878D02*Y46004D01*
X102165Y48878D02*Y46004D01*
X113189Y48878D02*Y46004D01*
X111614Y48878D02*Y46004D01*
X110039Y48878D02*Y46004D01*
X108465Y48878D02*Y46004D01*
X106890Y48878D02*Y46004D01*
G54D280*X98976Y34724D02*Y31575D01*
G54D267*X93307Y31496D02*Y30709D01*
Y36613D02*Y35826D01*
X82637Y40669D02*X83424D01*
X77520D02*X78307D01*
G54D280*X108819Y34724D02*Y31575D01*
G54D267*X113976Y33859D02*Y33072D01*
Y38976D02*Y38189D01*
X119882Y33859D02*Y33072D01*
Y38976D02*Y38189D01*
X125789Y41142D02*X126576D01*
X130906D02*X131693D01*
G54D281*X75394Y25276D02*X134449D01*
G54D267*X127362Y59251D02*Y58464D01*
Y54134D02*Y53347D01*
G54D276*X97441Y48878D02*Y46004D01*
X95866Y48878D02*Y46004D01*
X91083Y50787D02*X93957D01*
X91083Y52362D02*X93957D01*
X91083Y53937D02*X93957D01*
X91083Y55512D02*X93957D01*
X91083Y57087D02*X93957D01*
G54D273*X35699Y52029D02*X36899D01*
G54D267*X36379Y34331D02*X37166D01*
X41496D02*X42283D01*
G54D282*X40492Y8681D02*Y7106D01*
G54D283*X38819Y4646D02*Y2677D01*
G54D282*X54469Y8681D02*Y7106D01*
G54D283*X52205Y4646D02*Y2677D01*
X56142Y4646D02*Y2677D01*
X49055Y28661D02*Y26693D01*
X45906Y28661D02*Y26693D01*
X42756Y28661D02*Y26693D01*
Y4646D02*Y2677D01*
X38819Y28661D02*Y26693D01*
X35669Y28661D02*Y26693D01*
G54D274*X36260Y27283D02*X39016D01*
G54D283*X52205Y28661D02*Y26693D01*
X56142Y28661D02*Y26693D01*
X59291Y28661D02*Y26693D01*
G54D276*X108465Y72894D02*Y70020D01*
X110039Y72894D02*Y70020D01*
X111614Y72894D02*Y70020D01*
X113189Y72894D02*Y70020D01*
G54D284*X132677Y71850D02*Y71063D01*
Y80906D02*Y80118D01*
G54D267*X118098Y85954D02*Y85167D01*
G54D277*X107677Y93661D02*X129528D01*
G54D267*X118098Y80837D02*Y80050D01*
G54D276*X95866Y72894D02*Y70020D01*
X97441Y72894D02*Y70020D01*
X99016Y72894D02*Y70020D01*
X100591Y72894D02*Y70020D01*
X102165Y72894D02*Y70020D01*
X103740Y72894D02*Y70020D01*
X105315Y72894D02*Y70020D01*
X106890Y72894D02*Y70020D01*
G54D267*X99213Y81103D02*Y80316D01*
Y86220D02*Y85433D01*
X104426Y83556D02*Y82769D01*
Y78439D02*Y77652D01*
G54D276*X115098Y60236D02*X117972D01*
X115098Y58661D02*X117972D01*
X115098Y68110D02*X117972D01*
G54D267*X130905Y65354D02*X131692D01*
X125788D02*X126575D01*
G54D276*X115098Y66535D02*X117972D01*
X115098Y64961D02*X117972D01*
X115098Y63386D02*X117972D01*
X115098Y61811D02*X117972D01*
G54D285*G36*
X99602Y64375D02*Y54523D01*
X109454D01*
Y64375D01*
X99602D01*
G37*
G54D276*X115098Y57087D02*X117972D01*
X115098Y55512D02*X117972D01*
X115098Y53937D02*X117972D01*
X115098Y52362D02*X117972D01*
X115098Y50787D02*X117972D01*
G54D267*X130906Y47441D02*X131693D01*
X125789D02*X126576D01*
G54D284*X125394Y71850D02*Y71063D01*
Y80906D02*Y80118D01*
G54D267*X125900Y86678D02*X126687D01*
X131017D02*X131804D01*
X111457Y81811D02*Y81024D01*
Y86928D02*Y86141D01*
M02*
