G04 start of page 7 for group -4063 idx -4063 *
G04 Title: bluenodes actor 52832 19, componentmask *
G04 Creator: pcb.exe 20130205 *
G04 CreationDate: 10.05.2017 20:52:52 UTC *
G04 Format: Gerber/RS-274X *
G04 PCB-Dimensions (mil): 1496.06 1299.21 *
G04 PCB-Coordinate-Origin: lower left *
%MOIN*%
%FSLAX25Y25*%
%LNTOPMASK*%
%ADD264R,0.2480X0.2480*%
%ADD263R,0.0830X0.0830*%
%ADD262R,0.0415X0.0415*%
%ADD261R,0.0867X0.0867*%
%ADD260R,0.0651X0.0651*%
%ADD259R,0.0632X0.0632*%
%ADD258C,0.0987*%
%ADD257R,0.0966X0.0966*%
%ADD256C,0.0729*%
%ADD255R,0.0594X0.0594*%
%ADD254R,0.0363X0.0363*%
%ADD253R,0.0423X0.0423*%
%ADD252C,0.0001*%
%ADD251R,0.0475X0.0475*%
%ADD250R,0.0592X0.0592*%
%ADD249R,0.0336X0.0336*%
%ADD248R,0.0830X0.0830*%
G54D248*X5791Y101122D02*Y88524D01*
G54D249*X43877Y116287D02*X46633D01*
G54D248*X27773Y123925D02*Y111327D01*
X5727Y123925D02*Y111327D01*
X27837Y101122D02*Y88524D01*
G54D250*X28819Y77283D02*Y71378D01*
X7165Y77283D02*Y71378D01*
G54D251*X79262Y99335D02*Y98548D01*
X72994Y99320D02*Y98533D01*
G54D249*X65137Y100539D02*X67893D01*
G54D252*G36*
X61169Y80483D02*Y70613D01*
X71039D01*
Y80483D01*
X61169D01*
G37*
G36*
Y96183D02*Y86313D01*
X71039D01*
Y96183D01*
X61169D01*
G37*
G54D253*X46181Y75241D02*Y74041D01*
X53781Y75241D02*Y74041D01*
G54D249*X43877Y112350D02*X46633D01*
X43877Y108413D02*X46633D01*
X43877Y104476D02*X46633D01*
X43877Y100539D02*X46633D01*
G54D254*X53781Y85441D02*Y84241D01*
X49981Y85441D02*Y84241D01*
X46181Y85441D02*Y84241D01*
G54D255*X53702Y65657D02*X54096D01*
X47010D02*X47404D01*
G54D256*X58268Y68504D02*Y68307D01*
G54D257*X10039Y45866D02*X23425D01*
G54D252*G36*
X20933Y63829D02*Y53959D01*
X30803D01*
Y63829D01*
X20933D01*
G37*
G36*
X5233D02*Y53959D01*
X15103D01*
Y63829D01*
X5233D01*
G37*
G54D257*X9646Y5709D02*X23031D01*
G54D251*X72994Y104437D02*Y103650D01*
G54D249*X65137Y104476D02*X67893D01*
X65137Y108413D02*X67893D01*
G54D251*X73161Y110941D02*X73948D01*
X78278D02*X79065D01*
X79262Y104452D02*Y103665D01*
G54D249*X65137Y112350D02*X67893D01*
X65137Y116287D02*X67893D01*
G54D250*X77913Y92244D02*X83819D01*
X77913Y70591D02*X83819D01*
G54D258*X95866Y106448D03*
G54D251*X97207Y117428D02*Y116641D01*
Y112311D02*Y111524D01*
X90120Y117232D02*X90907D01*
X85003D02*X85790D01*
X72994D02*X73781D01*
G54D259*X44331Y126732D02*X100236D01*
G54D251*X78111Y117232D02*X78898D01*
X100787Y48818D02*Y48031D01*
Y43701D02*Y42914D01*
G54D256*X106890Y44291D02*Y44094D01*
G54D257*X126181Y5315D02*X139567D01*
G54D260*X102953Y25591D02*X110827D01*
X102953Y35039D02*X110827D01*
X102953Y15748D02*X110827D01*
G54D257*X126575Y45472D02*X139961D01*
G54D259*X48622Y57283D02*X104528D01*
G54D260*X38780Y35433D02*X46654D01*
G54D261*X69567Y45866D02*X82559D01*
X69567Y14370D02*X82559D01*
G54D260*X38780Y16142D02*X46654D01*
X38780Y25591D02*X46654D01*
G54D262*X134252Y70079D02*X137401D01*
G54D263*X140022Y79189D02*X145522D01*
X140022Y97189D02*X145522D01*
G54D262*X109448Y70079D02*X112598D01*
G54D248*X95538Y80776D02*X96324D01*
X95538Y69754D02*X96324D01*
G54D252*G36*
X90931Y95683D02*Y85813D01*
X100801D01*
Y95683D01*
X90931D01*
G37*
G54D262*X134252Y60079D02*X137401D01*
X109448D02*X112598D01*
G54D263*X139944Y107535D02*X145444D01*
X139944Y125535D02*X145444D01*
G54D264*X119594Y116535D02*X121194D01*
X119672Y88189D02*X121272D01*
M02*
