G04 start of page 10 for group -4078 idx -4078 *
G04 Title: bluenodes actor 52832 19, bottomsilk *
G04 Creator: pcb.exe 20130205 *
G04 CreationDate: 10.05.2017 20:52:52 UTC *
G04 Format: Gerber/RS-274X *
G04 PCB-Dimensions (mil): 1496.06 1299.21 *
G04 PCB-Coordinate-Origin: lower left *
%MOIN*%
%FSLAX25Y25*%
%LNBOTTOMSILK*%
%ADD292C,0.0080*%
%ADD291C,0.0218*%
%ADD290C,0.0099*%
%ADD289C,0.0100*%
G54D289*X88946Y109388D02*Y113868D01*
X88386Y109388D02*X90626D01*
X91186Y109948D01*
Y111068D01*
X90626Y111628D02*X91186Y111068D01*
X88946Y111628D02*X90626D01*
X92530Y109388D02*X93650D01*
X93090D02*Y113868D01*
X92530D02*X93650D01*
X28701Y90378D02*X30926D01*
X28701Y93938D02*X30926Y90378D01*
X28701Y93938D02*X30926D01*
X31994Y91980D02*X33329D01*
X31994Y93938D02*X33774D01*
X31994Y90378D02*Y93938D01*
Y90378D02*X33774D01*
X34842D02*X36622D01*
X37067Y90823D01*
Y91713D01*
X36622Y92158D02*X37067Y91713D01*
X35287Y92158D02*X36622D01*
X35287Y90378D02*Y93938D01*
X35999Y92158D02*X37067Y93938D01*
X38135Y90823D02*Y93493D01*
Y90823D02*X38580Y90378D01*
X39470D01*
X39915Y90823D01*
Y93493D01*
X39470Y93938D02*X39915Y93493D01*
X38580Y93938D02*X39470D01*
X38135Y93493D02*X38580Y93938D01*
X55039Y37876D02*X55789Y40876D01*
X56539Y37876D01*
X57964Y40876D02*X58939D01*
X57439Y40351D02*X57964Y40876D01*
X57439Y38401D02*Y40351D01*
Y38401D02*X57964Y37876D01*
X58939D01*
X60364Y40876D02*X61339D01*
X59839Y40351D02*X60364Y40876D01*
X59839Y38401D02*Y40351D01*
Y38401D02*X60364Y37876D01*
X61339D01*
X469Y50712D02*X14097D01*
X469D02*Y30390D01*
X14097D01*
Y50712D02*Y30390D01*
X13658Y50712D02*X27286D01*
X13658D02*Y30390D01*
X27286D01*
Y50712D02*Y30390D01*
X50042Y45437D02*Y38501D01*
X36020Y45437D02*X50042D01*
X36020D02*Y38501D01*
X50042D01*
X39099Y46029D02*X43499D01*
Y58029D02*Y46029D01*
X39099Y57929D02*Y46129D01*
X39199Y58029D02*X43499D01*
X33501Y37208D02*Y31454D01*
X45161D01*
Y37208D02*Y31454D01*
X33501Y37208D02*X45161D01*
G54D290*X5315Y85039D02*X21457D01*
X5315D02*Y55512D01*
X21457D01*
Y85039D02*Y55512D01*
X17913Y57874D02*X19291D01*
G54D291*X33701Y1890D02*X61260D01*
Y29449D01*
X33701D01*
Y1890D01*
G54D290*X63386Y106693D02*Y62835D01*
Y106693D02*X63346Y106732D01*
X51811D02*X63346D01*
X51811D02*X51772Y106693D01*
Y62835D01*
X63386D01*
G54D289*X81178Y65233D02*X86932D01*
Y76893D01*
X81178D02*X86932D01*
X81178Y65233D02*Y76893D01*
X74682Y65036D02*X80436D01*
Y76696D02*Y65036D01*
X74682Y76696D02*X80436D01*
X74682D02*Y65036D01*
X134570Y68231D02*Y62477D01*
X122910Y68231D02*X134570D01*
X122910D02*Y62477D01*
X134570D01*
G54D292*X68748Y60390D02*Y53390D01*
X56748D02*X68748D01*
X56748Y60390D02*Y53390D01*
Y60390D02*X68748D01*
X67748D02*Y53390D01*
X68748Y52713D02*Y45713D01*
X56748D02*X68748D01*
X56748Y52713D02*Y45713D01*
Y52713D02*X68748D01*
X67748D02*Y45713D01*
G54D289*X124094Y82244D02*Y69646D01*
X133937D01*
Y82244D02*Y69646D01*
X124094Y82244D02*X133937D01*
X124485Y62129D02*X130239D01*
X124485D02*Y50469D01*
X130239D01*
Y62129D02*Y50469D01*
X101549Y86434D02*X107303D01*
X101549D02*Y74774D01*
X107303D01*
Y86434D02*Y74774D01*
X123022Y89555D02*Y83801D01*
X134682D01*
Y89555D02*Y83801D01*
X123022Y89555D02*X134682D01*
X108580Y78146D02*X114334D01*
Y89806D02*Y78146D01*
X108580Y89806D02*X114334D01*
X108580D02*Y78146D01*
X115221Y88832D02*X120975D01*
X115221D02*Y77172D01*
X120975D01*
Y88832D02*Y77172D01*
X74682Y64885D02*Y59131D01*
X86342D01*
Y64885D02*Y59131D01*
X74682Y64885D02*X86342D01*
X86302Y48743D02*Y42989D01*
X74642Y48743D02*X86302D01*
X74642D02*Y42989D01*
X86302D01*
X86342Y54019D02*Y48265D01*
X74682Y54019D02*X86342D01*
X74682D02*Y48265D01*
X86342D01*
Y59806D02*Y54052D01*
X74682Y59806D02*X86342D01*
X74682D02*Y54052D01*
X86342D01*
X86302Y43546D02*Y37792D01*
X74642Y43546D02*X86302D01*
X74642D02*Y37792D01*
X86302D01*
X96614Y29213D02*X111181D01*
Y37087D02*Y29213D01*
X96614Y37087D02*Y29213D01*
Y37087D02*X111181D01*
X90430Y27831D02*X96184D01*
Y39491D02*Y27831D01*
X90430Y39491D02*X96184D01*
X90430D02*Y27831D01*
X111099Y30194D02*X116853D01*
Y41854D02*Y30194D01*
X111099Y41854D02*X116853D01*
X111099D02*Y30194D01*
X117005D02*X122759D01*
Y41854D02*Y30194D01*
X117005Y41854D02*X122759D01*
X117005D02*Y30194D01*
X89567Y74409D02*Y44488D01*
X119488D01*
Y74409D02*Y44488D01*
X89567Y74409D02*X119488D01*
Y44488D02*X123425Y40551D01*
G54D290*X71417Y26969D02*X136378D01*
Y91929D01*
X71417D01*
Y26969D01*
G54D289*X134571Y50318D02*Y44564D01*
X122911Y50318D02*X134571D01*
X122911D02*Y44564D01*
X134571D01*
X122911Y44019D02*Y38265D01*
X134571D01*
Y44019D02*Y38265D01*
X122911Y44019D02*X134571D01*
G54D290*X62795Y117913D02*X87205D01*
Y129331D02*Y117913D01*
X62795Y129331D02*X87205D01*
X62795D02*Y117913D01*
X76575Y123425D02*X82087D01*
X76575Y124213D02*X82087D01*
G54D289*X81178Y88901D02*X86932D01*
X81178D02*Y77241D01*
X86932D01*
Y88901D02*Y77241D01*
X74682Y77044D02*X80436D01*
Y88704D02*Y77044D01*
X74682Y88704D02*X80436D01*
X74682D02*Y77044D01*
X96336Y77438D02*X102090D01*
Y89098D02*Y77438D01*
X96336Y89098D02*X102090D01*
X96336D02*Y77438D01*
X9843Y69504D02*Y73004D01*
X10343Y73504D01*
X11343D01*
X11843Y73004D01*
Y69504D02*Y73004D01*
X13043Y70004D02*X13543Y69504D01*
X15043D01*
X15543Y70004D01*
Y71004D01*
X13043Y73504D02*X15543Y71004D01*
X13043Y73504D02*X15543D01*
X16743Y73004D02*X17243Y73504D01*
X16743Y70004D02*Y73004D01*
Y70004D02*X17243Y69504D01*
X18243D01*
X18743Y70004D01*
Y73004D01*
X18243Y73504D02*X18743Y73004D01*
X17243Y73504D02*X18243D01*
X16743Y72504D02*X18743Y70504D01*
X2044Y38399D02*X4044D01*
X4544Y38899D01*
Y39899D01*
X4044Y40399D02*X4544Y39899D01*
X2544Y40399D02*X4044D01*
X2544Y38399D02*Y42399D01*
X3344Y40399D02*X4544Y42399D01*
X5744Y38899D02*X6244Y38399D01*
X7744D01*
X8244Y38899D01*
Y39899D01*
X5744Y42399D02*X8244Y39899D01*
X5744Y42399D02*X8244D01*
X9444Y40899D02*X11444Y38399D01*
X9444Y40899D02*X11944D01*
X11444Y38399D02*Y42399D01*
X15626Y38200D02*X17626D01*
X18126Y38700D01*
Y39700D01*
X17626Y40200D02*X18126Y39700D01*
X16126Y40200D02*X17626D01*
X16126Y38200D02*Y42200D01*
X16926Y40200D02*X18126Y42200D01*
X19326Y38700D02*X19826Y38200D01*
X21326D01*
X21826Y38700D01*
Y39700D01*
X19326Y42200D02*X21826Y39700D01*
X19326Y42200D02*X21826D01*
X23026Y38700D02*X23526Y38200D01*
X24526D01*
X25026Y38700D01*
X24526Y42200D02*X25026Y41700D01*
X23526Y42200D02*X24526D01*
X23026Y41700D02*X23526Y42200D01*
Y40000D02*X24526D01*
X25026Y38700D02*Y39500D01*
Y40500D02*Y41700D01*
Y40500D02*X24526Y40000D01*
X25026Y39500D02*X24526Y40000D01*
X28495Y44134D02*X29795D01*
X27795Y43434D02*X28495Y44134D01*
X27795Y40834D02*Y43434D01*
Y40834D02*X28495Y40134D01*
X29795D01*
X30995Y40934D02*X31795Y40134D01*
Y44134D01*
X30995D02*X32495D01*
X34195D02*X36195Y40134D01*
X33695D02*X36195D01*
X48535Y113071D02*X49835D01*
X47835Y112371D02*X48535Y113071D01*
X47835Y109771D02*Y112371D01*
Y109771D02*X48535Y109071D01*
X49835D01*
X51035Y109571D02*Y112571D01*
Y109571D02*X51535Y109071D01*
X52535D01*
X53035Y109571D01*
Y112571D01*
X52535Y113071D02*X53035Y112571D01*
X51535Y113071D02*X52535D01*
X51035Y112571D02*X51535Y113071D01*
X54235Y109071D02*Y113071D01*
Y109071D02*X56735Y113071D01*
Y109071D02*Y113071D01*
X57935Y109071D02*Y113071D01*
Y109071D02*X60435Y113071D01*
Y109071D02*Y113071D01*
X61635Y109071D02*X63635D01*
X61635D02*Y111071D01*
X62135Y110571D01*
X63135D01*
X63635Y111071D01*
Y112571D01*
X63135Y113071D02*X63635Y112571D01*
X62135Y113071D02*X63135D01*
X61635Y112571D02*X62135Y113071D01*
X64835Y112571D02*X65335Y113071D01*
X64835Y109571D02*Y112571D01*
Y109571D02*X65335Y109071D01*
X66335D01*
X66835Y109571D01*
Y112571D01*
X66335Y113071D02*X66835Y112571D01*
X65335Y113071D02*X66335D01*
X64835Y112071D02*X66835Y110071D01*
X87913Y81802D02*Y83102D01*
X88613Y81102D02*X87913Y81802D01*
X88613Y81102D02*X91213D01*
X91913Y81802D01*
Y83102D01*
Y85802D02*X91413Y86302D01*
X91913Y84802D02*Y85802D01*
X91413Y84302D02*X91913Y84802D01*
X88413Y84302D02*X91413D01*
X88413D02*X87913Y84802D01*
X90113Y85802D02*X89613Y86302D01*
X90113Y84302D02*Y85802D01*
X87913Y84802D02*Y85802D01*
X88413Y86302D01*
X89613D01*
X91413Y87502D02*X91913Y88002D01*
Y89502D01*
X91413Y90002D01*
X90413D02*X91413D01*
X87913Y87502D02*X90413Y90002D01*
X87913Y87502D02*Y90002D01*
X74197Y78543D02*Y80543D01*
X73697Y81043D01*
X72697D02*X73697D01*
X72197Y80543D02*X72697Y81043D01*
X72197Y79043D02*Y80543D01*
X70197Y79043D02*X74197D01*
X72197Y79843D02*X70197Y81043D01*
X74197Y82243D02*Y84243D01*
X72197Y82243D02*X74197D01*
X72197D02*X72697Y82743D01*
Y83743D01*
X72197Y84243D01*
X70697D02*X72197D01*
X70197Y83743D02*X70697Y84243D01*
X70197Y82743D02*Y83743D01*
X70697Y82243D02*X70197Y82743D01*
X73697Y85443D02*X74197Y85943D01*
Y87443D01*
X73697Y87943D01*
X72697D02*X73697D01*
X70197Y85443D02*X72697Y87943D01*
X70197Y85443D02*Y87943D01*
X71063Y113220D02*Y116220D01*
Y113220D02*X71763Y112220D01*
X72863D01*
X73563Y113220D01*
Y116220D01*
X71063Y114220D02*X73563D01*
X74763Y112220D02*X76763D01*
X74763D02*Y114220D01*
X75263Y113720D01*
X76263D01*
X76763Y114220D01*
Y115720D01*
X76263Y116220D02*X76763Y115720D01*
X75263Y116220D02*X76263D01*
X74763Y115720D02*X75263Y116220D01*
X77963Y115720D02*X78463Y116220D01*
X77963Y112720D02*Y115720D01*
Y112720D02*X78463Y112220D01*
X79463D01*
X79963Y112720D01*
Y115720D01*
X79463Y116220D02*X79963Y115720D01*
X78463Y116220D02*X79463D01*
X77963Y115220D02*X79963Y113220D01*
X84094Y97087D02*X88094D01*
X84094D02*Y99087D01*
X88094Y100287D02*Y102287D01*
X86094Y100287D02*X88094D01*
X86094D02*X86594Y100787D01*
Y101787D01*
X86094Y102287D01*
X84594D02*X86094D01*
X84094Y101787D02*X84594Y102287D01*
X84094Y100787D02*Y101787D01*
X84594Y100287D02*X84094Y100787D01*
X84594Y103487D02*X84094Y103987D01*
X84594Y103487D02*X87594D01*
X88094Y103987D01*
Y104987D01*
X87594Y105487D01*
X84594D02*X87594D01*
X84094Y104987D02*X84594Y105487D01*
X84094Y103987D02*Y104987D01*
X85094Y103487D02*X87094Y105487D01*
X109724Y97629D02*Y98929D01*
X110424Y96929D02*X109724Y97629D01*
X110424Y96929D02*X113024D01*
X113724Y97629D01*
Y98929D01*
Y101629D02*X113224Y102129D01*
X113724Y100629D02*Y101629D01*
X113224Y100129D02*X113724Y100629D01*
X110224Y100129D02*X113224D01*
X110224D02*X109724Y100629D01*
X111924Y101629D02*X111424Y102129D01*
X111924Y100129D02*Y101629D01*
X109724Y100629D02*Y101629D01*
X110224Y102129D01*
X111424D01*
X110224Y103329D02*X109724Y103829D01*
X110224Y103329D02*X113224D01*
X113724Y103829D01*
Y104829D01*
X113224Y105329D01*
X110224D02*X113224D01*
X109724Y104829D02*X110224Y105329D01*
X109724Y103829D02*Y104829D01*
X110724Y103329D02*X112724Y105329D01*
X104094Y97669D02*Y98969D01*
X104794Y96969D02*X104094Y97669D01*
X104794Y96969D02*X107394D01*
X108094Y97669D01*
Y98969D01*
Y101669D02*X107594Y102169D01*
X108094Y100669D02*Y101669D01*
X107594Y100169D02*X108094Y100669D01*
X104594Y100169D02*X107594D01*
X104594D02*X104094Y100669D01*
X106294Y101669D02*X105794Y102169D01*
X106294Y100169D02*Y101669D01*
X104094Y100669D02*Y101669D01*
X104594Y102169D01*
X105794D01*
X107294Y103369D02*X108094Y104169D01*
X104094D02*X108094D01*
X104094Y103369D02*Y104869D01*
X100551Y50016D02*Y53516D01*
X101051Y54016D01*
X102051D01*
X102551Y53516D01*
Y50016D02*Y53516D01*
X103751Y50016D02*X105751D01*
X103751D02*Y52016D01*
X104251Y51516D01*
X105251D01*
X105751Y52016D01*
Y53516D01*
X105251Y54016D02*X105751Y53516D01*
X104251Y54016D02*X105251D01*
X103751Y53516D02*X104251Y54016D01*
X106951Y53516D02*X107451Y54016D01*
X106951Y50516D02*Y53516D01*
Y50516D02*X107451Y50016D01*
X108451D01*
X108951Y50516D01*
Y53516D01*
X108451Y54016D02*X108951Y53516D01*
X107451Y54016D02*X108451D01*
X106951Y53016D02*X108951Y51016D01*
X124134Y30228D02*Y31528D01*
X124834Y29528D02*X124134Y30228D01*
X124834Y29528D02*X127434D01*
X128134Y30228D01*
Y31528D01*
Y32728D02*Y34728D01*
X126134Y32728D02*X128134D01*
X126134D02*X126634Y33228D01*
Y34228D01*
X126134Y34728D01*
X124634D02*X126134D01*
X124134Y34228D02*X124634Y34728D01*
X124134Y33228D02*Y34228D01*
X124634Y32728D02*X124134Y33228D01*
Y36428D02*X126134Y37928D01*
X127634D01*
X128134Y37428D02*X127634Y37928D01*
X128134Y36428D02*Y37428D01*
X127634Y35928D02*X128134Y36428D01*
X126634Y35928D02*X127634D01*
X126634D02*X126134Y36428D01*
Y37928D01*
X137992Y78228D02*X140492Y74228D01*
X137992D02*X140492Y78228D01*
X141692Y74228D02*X143692D01*
X141692D02*Y76228D01*
X142192Y75728D01*
X143192D01*
X143692Y76228D01*
Y77728D01*
X143192Y78228D02*X143692Y77728D01*
X142192Y78228D02*X143192D01*
X141692Y77728D02*X142192Y78228D01*
X144892Y77728D02*X145392Y78228D01*
X144892Y74728D02*Y77728D01*
Y74728D02*X145392Y74228D01*
X146392D01*
X146892Y74728D01*
Y77728D01*
X146392Y78228D02*X146892Y77728D01*
X145392Y78228D02*X146392D01*
X144892Y77228D02*X146892Y75228D01*
X138298Y88268D02*X139598D01*
X137598Y87568D02*X138298Y88268D01*
X137598Y84968D02*Y87568D01*
Y84968D02*X138298Y84268D01*
X139598D01*
X140798D02*X142798D01*
X140798D02*Y86268D01*
X141298Y85768D01*
X142298D01*
X142798Y86268D01*
Y87768D01*
X142298Y88268D02*X142798Y87768D01*
X141298Y88268D02*X142298D01*
X140798Y87768D02*X141298Y88268D01*
X145498Y84268D02*X145998Y84768D01*
X144498Y84268D02*X145498D01*
X143998Y84768D02*X144498Y84268D01*
X143998Y84768D02*Y87768D01*
X144498Y88268D01*
X145498Y86068D02*X145998Y86568D01*
X143998Y86068D02*X145498D01*
X144498Y88268D02*X145498D01*
X145998Y87768D01*
Y86568D02*Y87768D01*
X139873Y63071D02*X141173D01*
X139173Y62371D02*X139873Y63071D01*
X139173Y59771D02*Y62371D01*
Y59771D02*X139873Y59071D01*
X141173D01*
X142373D02*X144373D01*
X142373D02*Y61071D01*
X142873Y60571D01*
X143873D01*
X144373Y61071D01*
Y62571D01*
X143873Y63071D02*X144373Y62571D01*
X142873Y63071D02*X143873D01*
X142373Y62571D02*X142873Y63071D01*
X145573Y59071D02*X147573D01*
X145573D02*Y61071D01*
X146073Y60571D01*
X147073D01*
X147573Y61071D01*
Y62571D01*
X147073Y63071D02*X147573Y62571D01*
X146073Y63071D02*X147073D01*
X145573Y62571D02*X146073Y63071D01*
X138495Y49291D02*X139795D01*
X137795Y48591D02*X138495Y49291D01*
X137795Y45991D02*Y48591D01*
Y45991D02*X138495Y45291D01*
X139795D01*
X140995D02*X142995D01*
X140995D02*Y47291D01*
X141495Y46791D01*
X142495D01*
X142995Y47291D01*
Y48791D01*
X142495Y49291D02*X142995Y48791D01*
X141495Y49291D02*X142495D01*
X140995Y48791D02*X141495Y49291D01*
X144195Y45791D02*X144695Y45291D01*
X145695D01*
X146195Y45791D01*
X145695Y49291D02*X146195Y48791D01*
X144695Y49291D02*X145695D01*
X144195Y48791D02*X144695Y49291D01*
Y47091D02*X145695D01*
X146195Y45791D02*Y46591D01*
Y47591D02*Y48791D01*
Y47591D02*X145695Y47091D01*
X146195Y46591D02*X145695Y47091D01*
X138102Y43780D02*X139402D01*
X137402Y43080D02*X138102Y43780D01*
X137402Y40480D02*Y43080D01*
Y40480D02*X138102Y39780D01*
X139402D01*
X140602D02*X142602D01*
X140602D02*Y41780D01*
X141102Y41280D01*
X142102D01*
X142602Y41780D01*
Y43280D01*
X142102Y43780D02*X142602Y43280D01*
X141102Y43780D02*X142102D01*
X140602Y43280D02*X141102Y43780D01*
X143802Y40280D02*X144302Y39780D01*
X145802D01*
X146302Y40280D01*
Y41280D01*
X143802Y43780D02*X146302Y41280D01*
X143802Y43780D02*X146302D01*
X138495Y55591D02*X139795D01*
X137795Y54891D02*X138495Y55591D01*
X137795Y52291D02*Y54891D01*
Y52291D02*X138495Y51591D01*
X139795D01*
X140995D02*X142995D01*
X140995D02*Y53591D01*
X141495Y53091D01*
X142495D01*
X142995Y53591D01*
Y55091D01*
X142495Y55591D02*X142995Y55091D01*
X141495Y55591D02*X142495D01*
X140995Y55091D02*X141495Y55591D01*
X144195Y55091D02*X144695Y55591D01*
X144195Y52091D02*Y55091D01*
Y52091D02*X144695Y51591D01*
X145695D01*
X146195Y52091D01*
Y55091D01*
X145695Y55591D02*X146195Y55091D01*
X144695Y55591D02*X145695D01*
X144195Y54591D02*X146195Y52591D01*
X116142Y97669D02*Y98969D01*
X116842Y96969D02*X116142Y97669D01*
X116842Y96969D02*X119442D01*
X120142Y97669D01*
Y98969D01*
Y100169D02*Y102169D01*
X118142Y100169D02*X120142D01*
X118142D02*X118642Y100669D01*
Y101669D01*
X118142Y102169D01*
X116642D02*X118142D01*
X116142Y101669D02*X116642Y102169D01*
X116142Y100669D02*Y101669D01*
X116642Y100169D02*X116142Y100669D01*
X119342Y103369D02*X120142Y104169D01*
X116142D02*X120142D01*
X116142Y103369D02*Y104869D01*
X49398Y54465D02*Y58465D01*
X50698Y54465D02*X51398Y55165D01*
Y57765D01*
X50698Y58465D02*X51398Y57765D01*
X48898Y58465D02*X50698D01*
X48898Y54465D02*X50698D01*
X52598D02*X54598D01*
X52598D02*Y56465D01*
X53098Y55965D01*
X54098D01*
X54598Y56465D01*
Y57965D01*
X54098Y58465D02*X54598Y57965D01*
X53098Y58465D02*X54098D01*
X52598Y57965D02*X53098Y58465D01*
X55798Y55265D02*X56598Y54465D01*
Y58465D01*
X55798D02*X57298D01*
X48886Y46945D02*Y50945D01*
X50186Y46945D02*X50886Y47645D01*
Y50245D01*
X50186Y50945D02*X50886Y50245D01*
X48386Y50945D02*X50186D01*
X48386Y46945D02*X50186D01*
X52086D02*X54086D01*
X52086D02*Y48945D01*
X52586Y48445D01*
X53586D01*
X54086Y48945D01*
Y50445D01*
X53586Y50945D02*X54086Y50445D01*
X52586Y50945D02*X53586D01*
X52086Y50445D02*X52586Y50945D01*
X55286Y50445D02*X55786Y50945D01*
X55286Y47445D02*Y50445D01*
Y47445D02*X55786Y46945D01*
X56786D01*
X57286Y47445D01*
Y50445D01*
X56786Y50945D02*X57286Y50445D01*
X55786Y50945D02*X56786D01*
X55286Y49945D02*X57286Y47945D01*
X38858Y50213D02*Y53713D01*
X39358Y54213D01*
X40358D01*
X40858Y53713D01*
Y50213D02*Y53713D01*
X42058Y51013D02*X42858Y50213D01*
Y54213D01*
X42058D02*X43558D01*
X44758Y51013D02*X45558Y50213D01*
Y54213D01*
X44758D02*X46258D01*
X47550Y36378D02*X48850D01*
X46850Y35678D02*X47550Y36378D01*
X46850Y33078D02*Y35678D01*
Y33078D02*X47550Y32378D01*
X48850D01*
X50050Y32878D02*X50550Y32378D01*
X51550D01*
X52050Y32878D01*
X51550Y36378D02*X52050Y35878D01*
X50550Y36378D02*X51550D01*
X50050Y35878D02*X50550Y36378D01*
Y34178D02*X51550D01*
X52050Y32878D02*Y33678D01*
Y34678D02*Y35878D01*
Y34678D02*X51550Y34178D01*
X52050Y33678D02*X51550Y34178D01*
X53250Y35878D02*X53750Y36378D01*
X53250Y32878D02*Y35878D01*
Y32878D02*X53750Y32378D01*
X54750D01*
X55250Y32878D01*
Y35878D01*
X54750Y36378D02*X55250Y35878D01*
X53750Y36378D02*X54750D01*
X53250Y35378D02*X55250Y33378D01*
X63062Y43504D02*X64362D01*
X62362Y42804D02*X63062Y43504D01*
X62362Y40204D02*Y42804D01*
Y40204D02*X63062Y39504D01*
X64362D01*
X65562D02*X67562D01*
X65562D02*Y41504D01*
X66062Y41004D01*
X67062D01*
X67562Y41504D01*
Y43004D01*
X67062Y43504D02*X67562Y43004D01*
X66062Y43504D02*X67062D01*
X65562Y43004D02*X66062Y43504D01*
X68762Y42004D02*X70762Y39504D01*
X68762Y42004D02*X71262D01*
X70762Y39504D02*Y43504D01*
X61929Y33756D02*X63929D01*
X64429Y34256D01*
Y35256D01*
X63929Y35756D02*X64429Y35256D01*
X62429Y35756D02*X63929D01*
X62429Y33756D02*Y37756D01*
X63229Y35756D02*X64429Y37756D01*
X65629Y34256D02*X66129Y33756D01*
X67129D01*
X67629Y34256D01*
X67129Y37756D02*X67629Y37256D01*
X66129Y37756D02*X67129D01*
X65629Y37256D02*X66129Y37756D01*
Y35556D02*X67129D01*
X67629Y34256D02*Y35056D01*
Y36056D02*Y37256D01*
Y36056D02*X67129Y35556D01*
X67629Y35056D02*X67129Y35556D01*
X68829Y37256D02*X69329Y37756D01*
X68829Y34256D02*Y37256D01*
Y34256D02*X69329Y33756D01*
X70329D01*
X70829Y34256D01*
Y37256D01*
X70329Y37756D02*X70829Y37256D01*
X69329Y37756D02*X70329D01*
X68829Y36756D02*X70829Y34756D01*
X67432Y64252D02*X68732D01*
X66732Y63552D02*X67432Y64252D01*
X66732Y60952D02*Y63552D01*
Y60952D02*X67432Y60252D01*
X68732D01*
X69932Y60752D02*X70432Y60252D01*
X71932D01*
X72432Y60752D01*
Y61752D01*
X69932Y64252D02*X72432Y61752D01*
X69932Y64252D02*X72432D01*
X73632Y63752D02*X74132Y64252D01*
X73632Y60752D02*Y63752D01*
Y60752D02*X74132Y60252D01*
X75132D01*
X75632Y60752D01*
Y63752D01*
X75132Y64252D02*X75632Y63752D01*
X74132Y64252D02*X75132D01*
X73632Y63252D02*X75632Y61252D01*
X87520Y70582D02*Y71882D01*
X88220Y69882D02*X87520Y70582D01*
X88220Y69882D02*X90820D01*
X91520Y70582D01*
Y71882D01*
Y74582D02*X91020Y75082D01*
X91520Y73582D02*Y74582D01*
X91020Y73082D02*X91520Y73582D01*
X88020Y73082D02*X91020D01*
X88020D02*X87520Y73582D01*
X89720Y74582D02*X89220Y75082D01*
X89720Y73082D02*Y74582D01*
X87520Y73582D02*Y74582D01*
X88020Y75082D01*
X89220D01*
X91020Y76282D02*X91520Y76782D01*
Y77782D01*
X91020Y78282D01*
X87520Y77782D02*X88020Y78282D01*
X87520Y76782D02*Y77782D01*
X88020Y76282D02*X87520Y76782D01*
X89720D02*Y77782D01*
X90220Y78282D02*X91020D01*
X88020D02*X89220D01*
X89720Y77782D01*
X90220Y78282D02*X89720Y77782D01*
X67520Y48795D02*X69520D01*
X70020Y49295D01*
Y50295D01*
X69520Y50795D02*X70020Y50295D01*
X68020Y50795D02*X69520D01*
X68020Y48795D02*Y52795D01*
X68820Y50795D02*X70020Y52795D01*
X71220Y48795D02*X73220D01*
X71220D02*Y50795D01*
X71720Y50295D01*
X72720D01*
X73220Y50795D01*
Y52295D01*
X72720Y52795D02*X73220Y52295D01*
X71720Y52795D02*X72720D01*
X71220Y52295D02*X71720Y52795D01*
X74420Y52295D02*X74920Y52795D01*
X74420Y49295D02*Y52295D01*
Y49295D02*X74920Y48795D01*
X75920D01*
X76420Y49295D01*
Y52295D01*
X75920Y52795D02*X76420Y52295D01*
X74920Y52795D02*X75920D01*
X74420Y51795D02*X76420Y49795D01*
X67323Y55567D02*X69323D01*
X69823Y56067D01*
Y57067D01*
X69323Y57567D02*X69823Y57067D01*
X67823Y57567D02*X69323D01*
X67823Y55567D02*Y59567D01*
X68623Y57567D02*X69823Y59567D01*
X71023Y55567D02*X73023D01*
X71023D02*Y57567D01*
X71523Y57067D01*
X72523D01*
X73023Y57567D01*
Y59067D01*
X72523Y59567D02*X73023Y59067D01*
X71523Y59567D02*X72523D01*
X71023Y59067D02*X71523Y59567D01*
X74223Y56367D02*X75023Y55567D01*
Y59567D01*
X74223D02*X75723D01*
X74197Y67126D02*Y69126D01*
X73697Y69626D01*
X72697D02*X73697D01*
X72197Y69126D02*X72697Y69626D01*
X72197Y67626D02*Y69126D01*
X70197Y67626D02*X74197D01*
X72197Y68426D02*X70197Y69626D01*
X74197Y70826D02*Y72826D01*
X72197Y70826D02*X74197D01*
X72197D02*X72697Y71326D01*
Y72326D01*
X72197Y72826D01*
X70697D02*X72197D01*
X70197Y72326D02*X70697Y72826D01*
X70197Y71326D02*Y72326D01*
X70697Y70826D02*X70197Y71326D01*
X73697Y74026D02*X74197Y74526D01*
Y75526D01*
X73697Y76026D01*
X70197Y75526D02*X70697Y76026D01*
X70197Y74526D02*Y75526D01*
X70697Y74026D02*X70197Y74526D01*
X72397D02*Y75526D01*
X72897Y76026D02*X73697D01*
X70697D02*X71897D01*
X72397Y75526D01*
X72897Y76026D02*X72397Y75526D01*
X99567Y19252D02*X102067Y15252D01*
X99567D02*X102067Y19252D01*
X103267Y15252D02*X105267D01*
X103267D02*Y17252D01*
X103767Y16752D01*
X104767D01*
X105267Y17252D01*
Y18752D01*
X104767Y19252D02*X105267Y18752D01*
X103767Y19252D02*X104767D01*
X103267Y18752D02*X103767Y19252D01*
X106467Y16052D02*X107267Y15252D01*
Y19252D01*
X106467D02*X107967D01*
X111535Y13298D02*Y14598D01*
X112235Y12598D02*X111535Y13298D01*
X112235Y12598D02*X114835D01*
X115535Y13298D01*
Y14598D01*
Y15798D02*Y17798D01*
X113535Y15798D02*X115535D01*
X113535D02*X114035Y16298D01*
Y17298D01*
X113535Y17798D01*
X112035D02*X113535D01*
X111535Y17298D02*X112035Y17798D01*
X111535Y16298D02*Y17298D01*
X112035Y15798D02*X111535Y16298D01*
Y19498D02*X115535Y21498D01*
Y18998D02*Y21498D01*
X91260Y10346D02*Y11646D01*
X91960Y9646D02*X91260Y10346D01*
X91960Y9646D02*X94560D01*
X95260Y10346D01*
Y11646D01*
Y12846D02*Y14846D01*
X93260Y12846D02*X95260D01*
X93260D02*X93760Y13346D01*
Y14346D01*
X93260Y14846D01*
X91760D02*X93260D01*
X91260Y14346D02*X91760Y14846D01*
X91260Y13346D02*Y14346D01*
X91760Y12846D02*X91260Y13346D01*
X91760Y16046D02*X91260Y16546D01*
X91760Y16046D02*X92560D01*
X93260Y16746D01*
Y17346D01*
X92560Y18046D01*
X91760D02*X92560D01*
X91260Y17546D02*X91760Y18046D01*
X91260Y16546D02*Y17546D01*
X93960Y16046D02*X93260Y16746D01*
X93960Y16046D02*X94760D01*
X95260Y16546D01*
Y17546D01*
X94760Y18046D01*
X93960D02*X94760D01*
X93260Y17346D02*X93960Y18046D01*
X43780Y17220D02*Y20720D01*
X44280Y21220D01*
X45280D01*
X45780Y20720D01*
Y17220D02*Y20720D01*
X46980Y17720D02*X47480Y17220D01*
X48480D01*
X48980Y17720D01*
X48480Y21220D02*X48980Y20720D01*
X47480Y21220D02*X48480D01*
X46980Y20720D02*X47480Y21220D01*
Y19020D02*X48480D01*
X48980Y17720D02*Y18520D01*
Y19520D02*Y20720D01*
Y19520D02*X48480Y19020D01*
X48980Y18520D02*X48480Y19020D01*
X50180Y20720D02*X50680Y21220D01*
X50180Y17720D02*Y20720D01*
Y17720D02*X50680Y17220D01*
X51680D01*
X52180Y17720D01*
Y20720D01*
X51680Y21220D02*X52180Y20720D01*
X50680Y21220D02*X51680D01*
X50180Y20220D02*X52180Y18220D01*
M02*
