G04 start of page 12 for group -4014 idx -4014 *
G04 Title: bluenodes actor 52832 19, bottompaste *
G04 Creator: pcb.exe 20130205 *
G04 CreationDate: 10.05.2017 20:52:52 UTC *
G04 Format: Gerber/RS-274X *
G04 PCB-Dimensions (mil): 1496.06 1299.21 *
G04 PCB-Coordinate-Origin: lower left *
%MOIN*%
%FSLAX25Y25*%
%LNBOTTOMPASTE*%
%ADD325R,0.0158X0.0158*%
%ADD324R,0.0433X0.0433*%
%ADD323R,0.0157X0.0157*%
%ADD322R,0.0886X0.0886*%
%ADD321R,0.0591X0.0591*%
%ADD320C,0.0630*%
%ADD319R,0.0276X0.0276*%
%ADD318R,0.0630X0.0630*%
%ADD317R,0.0413X0.0413*%
%ADD316C,0.0001*%
%ADD315R,0.0106X0.0106*%
%ADD314R,0.0276X0.0276*%
%ADD313R,0.0280X0.0280*%
%ADD312R,0.0394X0.0394*%
%ADD311R,0.0300X0.0300*%
%ADD310R,0.0394X0.0394*%
%ADD309R,0.0354X0.0354*%
%ADD308R,0.0630X0.0630*%
G54D308*X5118Y46062D02*X9448D01*
X5118Y35040D02*X9448D01*
G54D309*X18307Y89567D02*Y87992D01*
Y52165D02*Y50591D01*
X8268Y52165D02*Y50591D01*
Y89567D02*Y87992D01*
G54D308*X18307Y46062D02*X22637D01*
X18307Y35040D02*X22637D01*
G54D310*X61378Y64803D02*X67323D01*
X61378Y84803D02*X67323D01*
X61378Y104803D02*X67323D01*
X48346Y74803D02*X54291D01*
X48346Y94803D02*X54291D01*
G54D311*X65748Y57390D02*Y56390D01*
X59748Y57390D02*Y56390D01*
X65748Y49713D02*Y48713D01*
X59748Y49713D02*Y48713D01*
G54D312*X46180Y41969D02*X46574D01*
X39488D02*X39882D01*
G54D313*X35699Y48229D02*X36899D01*
X35699Y52029D02*X36899D01*
X35699Y55829D02*X36899D01*
X45899D02*X47099D01*
X45899Y48229D02*X47099D01*
G54D314*X36379Y34331D02*X37166D01*
X41496D02*X42283D01*
X77560Y62008D02*X78347D01*
X82677D02*X83464D01*
X82637Y45866D02*X83424D01*
X77520D02*X78307D01*
G54D315*X113189Y48878D02*Y46004D01*
X111614Y48878D02*Y46004D01*
X110039Y48878D02*Y46004D01*
X108465Y48878D02*Y46004D01*
X106890Y48878D02*Y46004D01*
X105315Y48878D02*Y46004D01*
X103740Y48878D02*Y46004D01*
X102165Y48878D02*Y46004D01*
X100591Y48878D02*Y46004D01*
X99016Y48878D02*Y46004D01*
X97441Y48878D02*Y46004D01*
X95866Y48878D02*Y46004D01*
Y72894D02*Y70020D01*
X97441Y72894D02*Y70020D01*
X99016Y72894D02*Y70020D01*
X100591Y72894D02*Y70020D01*
X102165Y72894D02*Y70020D01*
X103740Y72894D02*Y70020D01*
X105315Y72894D02*Y70020D01*
X106890Y72894D02*Y70020D01*
X108465Y72894D02*Y70020D01*
X110039Y72894D02*Y70020D01*
X111614Y72894D02*Y70020D01*
X113189Y72894D02*Y70020D01*
X91083Y50787D02*X93957D01*
X91083Y52362D02*X93957D01*
X91083Y53937D02*X93957D01*
X91083Y55512D02*X93957D01*
X91083Y57087D02*X93957D01*
X91083Y58661D02*X93957D01*
X91083Y60236D02*X93957D01*
X91083Y61811D02*X93957D01*
X91083Y63386D02*X93957D01*
X91083Y64961D02*X93957D01*
X91083Y66535D02*X93957D01*
X91083Y68110D02*X93957D01*
X115098D02*X117972D01*
X115098Y66535D02*X117972D01*
X115098Y64961D02*X117972D01*
X115098Y63386D02*X117972D01*
X115098Y61811D02*X117972D01*
X115098Y60236D02*X117972D01*
X115098Y58661D02*X117972D01*
X115098Y57087D02*X117972D01*
X115098Y55512D02*X117972D01*
X115098Y53937D02*X117972D01*
X115098Y52362D02*X117972D01*
X115098Y50787D02*X117972D01*
G54D316*G36*
X99602Y64375D02*Y54523D01*
X109454D01*
Y64375D01*
X99602D01*
G37*
G54D314*X84055Y68898D02*Y68111D01*
Y74015D02*Y73228D01*
X82677Y51142D02*X83464D01*
X77560D02*X78347D01*
X82677Y56929D02*X83464D01*
X77560D02*X78347D01*
X77559Y68701D02*Y67914D01*
Y73818D02*Y73031D01*
X84055Y86023D02*Y85236D01*
Y80906D02*Y80119D01*
X77559Y80709D02*Y79922D01*
Y85826D02*Y85039D01*
G54D310*X108819Y34724D02*Y31575D01*
X98976Y34724D02*Y31575D01*
G54D314*X113976Y33859D02*Y33072D01*
Y38976D02*Y38189D01*
X93307Y31496D02*Y30709D01*
Y36613D02*Y35826D01*
X119882Y33859D02*Y33072D01*
Y38976D02*Y38189D01*
G54D317*X132677Y71850D02*Y71063D01*
X125394Y71850D02*Y71063D01*
X132677Y80906D02*Y80118D01*
X125394Y80906D02*Y80118D01*
G54D314*X125900Y86678D02*X126687D01*
X131017D02*X131804D01*
X130905Y65354D02*X131692D01*
X125788D02*X126575D01*
X130906Y47441D02*X131693D01*
X125789D02*X126576D01*
X125789Y41142D02*X126576D01*
X130906D02*X131693D01*
X127362Y59251D02*Y58464D01*
Y54134D02*Y53347D01*
G54D318*X75394Y25276D02*X134449D01*
G54D319*X65748Y126772D02*X69685D01*
X80315D02*X84252D01*
X65748Y120472D02*X69685D01*
X80315D02*X84252D01*
G54D314*X99213Y81103D02*Y80316D01*
Y86220D02*Y85433D01*
X111457Y81811D02*Y81024D01*
Y86928D02*Y86141D01*
X118098Y85954D02*Y85167D01*
Y80837D02*Y80050D01*
X104426Y83556D02*Y82769D01*
Y78439D02*Y77652D01*
G54D320*X22598Y90512D02*Y90315D01*
G54D321*X107677Y93661D02*X129528D01*
X78858Y93465D02*X90276D01*
G54D322*X40492Y8681D02*Y7106D01*
X54469Y8681D02*Y7106D01*
G54D323*X49055Y28661D02*Y26693D01*
X45906Y28661D02*Y26693D01*
X42756Y28661D02*Y26693D01*
X52205Y28661D02*Y26693D01*
X42756Y4646D02*Y2677D01*
X38819Y4646D02*Y2677D01*
X52205Y4646D02*Y2677D01*
X56142Y4646D02*Y2677D01*
X38819Y28661D02*Y26693D01*
X35669Y28661D02*Y26693D01*
G54D319*X36260Y27283D02*X39016D01*
G54D323*X56142Y28661D02*Y26693D01*
X59291Y28661D02*Y26693D01*
G54D319*X55945Y27283D02*X58701D01*
G54D314*X82637Y40669D02*X83424D01*
X77520D02*X78307D01*
G54D320*X53032Y42480D02*X53033D01*
G54D324*X87756Y120433D02*X90157D01*
G54D325*X94685Y124961D02*X100591D01*
G54D324*X95394Y120433D02*X99173D01*
M02*
